<svg xmlns="http://www.w3.org/2000/svg" width="24" height="24" viewBox="0 0 24 24">
    <path fill="#BDBDBD" fill-rule="nonzero" d="M8.346 6.122h12.449V7.9H8.346V6.122zm0 7.113v-1.778h12.449v1.778H8.346zM5.68 5.677c.738 0 1.333.596 1.333 1.334 0 .738-.595 1.334-1.333 1.334A1.332 1.332 0 0 1 4.345 7.01c0-.738.596-1.334 1.334-1.334zm0 5.335c.738 0 1.333.596 1.333 1.334 0 .738-.595 1.334-1.333 1.334a1.332 1.332 0 0 1-1.334-1.334c0-.738.596-1.334 1.334-1.334zm2.667 7.559v-1.779h12.449v1.779H8.346zM5.68 16.348c.738 0 1.333.595 1.333 1.333s-.595 1.334-1.333 1.334a1.332 1.332 0 0 1-1.334-1.334c0-.738.596-1.333 1.334-1.333z"/>
</svg>
