<svg xmlns="http://www.w3.org/2000/svg" xmlns:xlink="http://www.w3.org/1999/xlink" width="29" height="29" viewBox="0 0 29 29">
    <defs>
        <path id="a" d="M0 28.444h28.444V0H0z"/>
    </defs>
    <g fill="none" fill-rule="evenodd" transform="translate(.222 .222)">
        <path fill="#212121" d="M8.134 3.857c-.613 0-1.112.498-1.112 1.11V23.63c0 .613.5 1.111 1.112 1.111h11.433c.614 0 1.111-.498 1.111-1.11V4.967c0-.613-.497-1.111-1.11-1.111H8.133zm11.433 22.218H8.134a2.446 2.446 0 0 1-2.445-2.445V4.968a2.446 2.446 0 0 1 2.445-2.445h11.433a2.446 2.446 0 0 1 2.445 2.445V23.63a2.446 2.446 0 0 1-2.445 2.445z"/>
        <path fill="#ED6745" d="M15.382 23.745h-3.077a.667.667 0 0 1 0-1.334h3.077a.667.667 0 0 1 0 1.334"/>
        <mask id="b" fill="#fff">
            <use xlink:href="#a"/>
        </mask>
        <path fill="#212121" d="M6.356 7.414h14.99V6.081H6.356zM6.356 21.463h14.99V20.13H6.356z" mask="url(#b)"/>
    </g>
</svg>
