<svg xmlns="http://www.w3.org/2000/svg" width="268" height="121" viewBox="0 0 268 121">
    <g fill="none" fill-rule="evenodd">
        <path fill="#323232" d="M176.461 67.222c0-1-.81-1.81-1.81-1.81h-.02c1 0 1.811-.81 1.811-1.81h.038c0 1 .81 1.81 1.81 1.81h.018c-1 0-1.81.81-1.81 1.81h-.037z"/>
        <path stroke="#323232" stroke-linecap="round" stroke-linejoin="round" stroke-width="1.778" d="M176.461 67.222c0-1-.81-1.81-1.81-1.81h-.02c1 0 1.811-.81 1.811-1.81h.038c0 1 .81 1.81 1.81 1.81h.018c-1 0-1.81.81-1.81 1.81h-.037z"/>
        <path stroke="#323232" stroke-linecap="round" stroke-linejoin="round" stroke-width="1.333" d="M185.911 51.792l2.097 2.097M185.911 53.89l2.097-2.098M196.45 78.954v2.967M194.966 80.438h2.966"/>
        <path fill="#323232" d="M132.936 23.138c0-1.173-.95-2.125-2.125-2.125h-.021c1.172 0 2.124-.95 2.124-2.124h.044c0 1.174.951 2.124 2.124 2.124h.022a2.125 2.125 0 0 0-2.124 2.125h-.044z"/>
        <path stroke="#323232" stroke-linecap="round" stroke-linejoin="round" stroke-width="1.778" d="M132.936 23.138c0-1.173-.95-2.125-2.125-2.125h-.021c1.172 0 2.124-.95 2.124-2.124h.044c0 1.174.951 2.124 2.124 2.124h.022a2.125 2.125 0 0 0-2.124 2.125h-.044z"/>
        <path stroke="#323232" stroke-linecap="round" stroke-linejoin="round" stroke-width="1.333" d="M116.964 28.81l1.618 1.619M116.964 30.429l1.618-1.618"/>
        <path fill="#ED6745" d="M123.966 37.862c-19.15 0-34.672 10.284-34.672 22.97 0 3.902 1.469 7.577 4.06 10.795h.002l30.61-10.795v-22.97z"/>
        <path stroke="#323232" stroke-linecap="round" stroke-linejoin="round" stroke-width="2.222" d="M99.991 84.027c5.833 7.244 17.352 12.174 30.612 12.174 19.147 0 34.671-10.283 34.671-22.97 0-12.686-15.524-22.97-34.671-22.97"/>
        <path stroke="#323232" stroke-linecap="round" stroke-linejoin="round" stroke-width="2.222" d="M130.602 50.261v22.971l-30.61 10.794v7.784l-.001.002c5.833 7.244 17.353 12.174 30.611 12.174 19.149 0 34.672-10.285 34.672-22.97v-7.784M123.966 37.862c-19.15 0-34.672 10.284-34.672 22.97 0 3.902 1.469 7.577 4.06 10.795M89.294 68.616c0 3.903 1.469 7.577 4.06 10.796M89.294 60.832v7.785"/>
        <path stroke="#323232" stroke-linecap="round" stroke-linejoin="round" stroke-width="2.222" d="M123.966 60.832v7.607L93.356 79.41v-7.783l30.61-10.795v-22.97M130.602 73.232l28.84 12.752v7.784"/>
        <path fill="#ED6745" d="M149.912 63.36a.644.644 0 0 0-.641-.64h-5.184a.643.643 0 0 0-.641.64c0 .352.288.642.64.642h1.58c.123.15.315.42.487.739h-2.066a.643.643 0 0 0-.641.64c0 .354.288.642.64.642h2.426a.958.958 0 0 1-.063.28c-.223.55-1.103.928-2.477 1.065a.716.716 0 0 0-.38 1.27l3.944 3.196a.716.716 0 0 0 1.01-.106.719.719 0 0 0-.106-1.009l-2.746-2.224c1.076-.33 1.776-.885 2.087-1.658a1.98 1.98 0 0 0 .167-.814h1.323a.644.644 0 0 0 .641-.641.644.644 0 0 0-.641-.641h-1.546a4.735 4.735 0 0 0-.226-.521 4.515 4.515 0 0 0-.115-.218h1.887c.352 0 .641-.29.641-.642M133.896 81.656a.643.643 0 0 0-.642-.64h-5.184a.643.643 0 0 0-.64.64c0 .353.287.642.64.642h1.579c.123.15.315.42.488.74h-2.067a.642.642 0 0 0 0 1.282h2.426a.951.951 0 0 1-.063.28c-.222.55-1.103.928-2.478 1.064a.717.717 0 0 0-.38 1.27l3.946 3.196a.715.715 0 0 0 1.009-.106.719.719 0 0 0-.106-1.008l-2.747-2.224c1.077-.331 1.776-.886 2.088-1.658a2.43 2.43 0 0 0 .166-.814h1.323a.643.643 0 0 0 .642-.642.642.642 0 0 0-.642-.64h-1.546a4.675 4.675 0 0 0-.225-.522 4.976 4.976 0 0 0-.115-.218h1.886a.643.643 0 0 0 .642-.642"/>
        <path fill="#FFF" d="M111.582 49.915a.644.644 0 0 0-.641-.642h-5.184c-.353 0-.641.29-.641.642 0 .352.288.642.64.642h1.58c.122.15.315.419.486.739h-2.065a.643.643 0 0 0-.641.64c0 .353.288.641.64.641h2.426a.957.957 0 0 1-.063.281c-.223.55-1.103.927-2.477 1.064a.717.717 0 0 0-.38 1.271l3.944 3.196a.716.716 0 0 0 1.01-.106.719.719 0 0 0-.106-1.009l-2.746-2.224c1.076-.33 1.776-.886 2.087-1.658.102-.254.156-.528.167-.815h1.323a.643.643 0 0 0 .641-.64.644.644 0 0 0-.641-.641h-1.546a4.747 4.747 0 0 0-.34-.74h1.886c.353 0 .641-.289.641-.64"/>
        <path fill="#ED6745" d="M183.246 97.87c1.433-.428 2.612-1.162 3.349-2.076.529-.658.83-1.41.83-2.207V82.235c0 .799-.301 1.55-.83 2.207-.737.915-1.916 1.65-3.35 2.076V97.87z"/>
        <path stroke="#323232" stroke-linecap="round" stroke-linejoin="round" stroke-width="1.778" d="M187.425 82.235c0 .798-.3 1.55-.83 2.207-1.193 1.48-3.547 2.488-6.258 2.488-3.914 0-7.087-2.1-7.087-4.695 0-2.593 3.173-4.695 7.087-4.695 3.915 0 7.088 2.102 7.088 4.695z"/>
        <path stroke="#323232" stroke-linecap="round" stroke-linejoin="round" stroke-width="1.778" d="M187.425 85.97c0 .796-.3 1.548-.83 2.206-1.193 1.48-3.547 2.489-6.258 2.489-3.914 0-7.087-2.102-7.087-4.695"/>
        <path stroke="#323232" stroke-linecap="round" stroke-linejoin="round" stroke-width="1.778" d="M187.425 82.235v7.468c0 .798-.3 1.55-.83 2.207-1.193 1.48-3.547 2.489-6.258 2.489-3.914 0-7.087-2.103-7.087-4.696v-7.468"/>
        <path stroke="#323232" stroke-linecap="round" stroke-linejoin="round" stroke-width="1.778" d="M187.425 89.772v3.733c0 .798-.3 1.549-.83 2.207-1.193 1.481-3.547 2.488-6.258 2.488-3.914 0-7.087-2.102-7.087-4.695v-3.733"/>
        <path fill="#ED6745" d="M175.27 105.045c1.432-.427 2.612-1.161 3.348-2.076.53-.658.83-1.409.83-2.206v-7.469c0 .798-.3 1.55-.83 2.208-.736.914-1.916 1.648-3.348 2.076v-.001 7.468z"/>
        <path stroke="#323232" stroke-linecap="round" stroke-linejoin="round" stroke-width="1.778" d="M179.448 97.029c0 .797-.3 1.548-.83 2.206-1.191 1.48-3.547 2.489-6.257 2.489-3.914 0-7.087-2.102-7.087-4.695"/>
        <path stroke="#323232" stroke-linecap="round" stroke-linejoin="round" stroke-width="1.778" d="M179.448 93.294v7.468c0 .798-.3 1.55-.83 2.207-1.191 1.481-3.547 2.489-6.257 2.489-3.914 0-7.087-2.103-7.087-4.696v-7.468"/>
        <path fill="#FFF" d="M179.448 93.294c0 .798-.3 1.55-.83 2.208-1.191 1.48-3.547 2.488-6.257 2.488-3.914 0-7.087-2.102-7.087-4.696 0-2.592 3.173-4.695 7.087-4.695 3.915 0 7.087 2.103 7.087 4.695"/>
        <path stroke="#323232" stroke-linecap="round" stroke-linejoin="round" stroke-width="1.778" d="M179.448 93.294c0 .798-.3 1.55-.83 2.208-1.191 1.48-3.547 2.488-6.257 2.488-3.914 0-7.087-2.102-7.087-4.696 0-2.592 3.173-4.695 7.087-4.695 3.915 0 7.087 2.103 7.087 4.695z"/>
        <path fill="#ED6745" d="M152.394 47.022c1.433-.427 2.613-1.162 3.35-2.076.528-.657.829-1.41.829-2.207v-7.467c0 .798-.3 1.548-.83 2.207-.736.914-1.916 1.648-3.349 2.076v7.466z"/>
        <path stroke="#323232" stroke-linecap="round" stroke-linejoin="round" stroke-width="1.778" d="M156.573 39.005c0 .798-.3 1.549-.83 2.207-1.192 1.48-3.548 2.488-6.258 2.488-3.914 0-7.086-2.102-7.086-4.695"/>
        <path stroke="#323232" stroke-linecap="round" stroke-linejoin="round" stroke-width="1.778" d="M156.573 35.272v7.466c0 .799-.3 1.55-.83 2.208-1.192 1.48-3.548 2.488-6.258 2.488-3.914 0-7.086-2.102-7.086-4.696v-7.466"/>
        <path fill="#FFF" d="M156.573 35.272c0 .797-.3 1.548-.83 2.206-1.192 1.48-3.548 2.489-6.258 2.489-3.914 0-7.086-2.102-7.086-4.695 0-2.594 3.172-4.695 7.086-4.695 3.915 0 7.088 2.101 7.088 4.695"/>
        <path stroke="#323232" stroke-linecap="round" stroke-linejoin="round" stroke-width="1.778" d="M156.573 35.272c0 .797-.3 1.548-.83 2.206-1.192 1.48-3.548 2.489-6.258 2.489-3.914 0-7.086-2.102-7.086-4.695 0-2.594 3.172-4.695 7.086-4.695 3.915 0 7.088 2.101 7.088 4.695z"/>
    </g>
</svg>
