<svg xmlns="http://www.w3.org/2000/svg" xmlns:xlink="http://www.w3.org/1999/xlink" width="82" height="82" viewBox="0 0 82 82">
    <defs>
        <rect id="a" width="10.25" height="3.417" x="14.521" y="65.771" rx="1.708"/>
    </defs>
    <g fill="none" fill-rule="evenodd" opacity=".5" transform="translate(20.966 4.737)">
        <path fill="#AEDACC" stroke="#793A1F" stroke-width="1.7" d="M2.765 73.156A2.776 2.776 0 0 1 0 70.373V2.783A2.776 2.776 0 0 1 2.765 0h33.877a2.777 2.777 0 0 1 2.765 2.783v67.59a2.777 2.777 0 0 1-2.765 2.783H2.765z"/>
        <use fill="#FFF" xlink:href="#a"/>
        <rect width="9.4" height="2.567" x="14.946" y="66.196" stroke="#793A1F" stroke-width=".85" rx="1.283"/>
        <rect width="10.254" height="1.626" x="14.946" y="3.842" stroke="#793A1F" stroke-width=".85" rx=".813"/>
        <path fill="#FEFEFE" stroke="#793A1F" stroke-width=".85" d="M3.365 61.669a.484.484 0 0 1-.478-.49V9.453c0-.27.213-.488.478-.488h32.57c.264 0 .477.218.477.488v51.726c0 .27-.213.49-.477.49H3.365z"/>
        <path fill="#E47171" d="M16.156 47.64a.49.49 0 0 1-.472-.604l2.259-9.399H14.45a.491.491 0 0 1-.417-.742l8.109-13.454a.487.487 0 0 1 .602-.199c.22.093.343.333.287.569l-2.26 9.397h3.493a.493.493 0 0 1 .417.744l-8.109 13.453a.484.484 0 0 1-.416.236"/>
        <path fill="#793A1F" d="M22.558 24.674h.002-.002zm0-1.957c-.33 0-.65.17-.832.471L13.618 36.64a.986.986 0 0 0-.015.988.971.971 0 0 0 .848.498h2.874l-2.114 8.795a.972.972 0 1 0 1.776.738l8.088-13.419a.976.976 0 0 0 .163-.541.975.975 0 0 0-.972-.979H21.388l2.115-8.794a.98.98 0 0 0-.945-1.21zm1.706 10.982h.002-.002zm-1.706-10.004L20.152 33.7h4.112L16.156 47.15l2.405-10.003h-4.11l8.107-13.453z"/>
    </g>
</svg>
