<svg xmlns="http://www.w3.org/2000/svg" xmlns:xlink="http://www.w3.org/1999/xlink" width="320" height="142" viewBox="0 0 320 142">
    <defs>
        <path id="a" d="M.179 4.318h1.847L.83 7.253 4.993 2.95H3.145L4.312.043z"/>
        <path id="c" d="M2.045 3.65c0-1.826 1.469-3.306 3.282-3.306 1.814 0 3.282 1.48 3.282 3.305 0 1.823-1.468 3.303-3.282 3.303-.909 0-1.725-.371-2.32-.969l.517-.522c.461.467 1.1.756 1.803.756A2.558 2.558 0 0 0 7.88 3.65c0-1.423-1.14-2.57-2.553-2.57a2.558 2.558 0 0 0-2.553 2.57h1.094L2.394 5.128l-.025-.052L.95 3.649h1.095zm2.918-1.47h.547v1.56l1.276.764-.262.444-1.56-.933V2.18z"/>
        <path id="e" d="M7.873 26.332c-4.713-4.713-4.713-12.355 0-17.067 4.713-4.713 12.354-4.713 17.067 0 4.713 4.712 4.713 12.354 0 17.067-4.713 4.713-12.354 4.713-17.067 0z"/>
        <filter id="f" width="105%" height="105%" x="-2.5%" y="-2.5%" filterUnits="objectBoundingBox">
            <feOffset dx="1" dy="1.2" in="SourceAlpha" result="shadowOffsetInner1"/>
            <feComposite in="shadowOffsetInner1" in2="SourceAlpha" k2="-1" k3="1" operator="arithmetic" result="shadowInnerInner1"/>
            <feColorMatrix in="shadowInnerInner1" values="0 0 0 0 1 0 0 0 0 0.71372549 0 0 0 0 0 0 0 0 1 0"/>
        </filter>
        <path id="g" d="M25.426 9.78a12.253 12.253 0 0 0-.486-.515c-4.713-4.713-12.354-4.713-17.067 0-4.713 4.712-4.713 12.354 0 17.067.168.168.34.33.515.486-4.222-4.74-4.06-12.008.485-16.553C13.42 5.72 20.687 5.558 25.426 9.78z"/>
        <filter id="h" width="105.7%" height="105.7%" x="-2.8%" y="-2.8%" filterUnits="objectBoundingBox">
            <feOffset dx="1" dy="1.2" in="SourceAlpha" result="shadowOffsetInner1"/>
            <feComposite in="shadowOffsetInner1" in2="SourceAlpha" k2="-1" k3="1" operator="arithmetic" result="shadowInnerInner1"/>
            <feColorMatrix in="shadowInnerInner1" values="0 0 0 0 1 0 0 0 0 0.71372549 0 0 0 0 0 0 0 0 1 0"/>
        </filter>
        <path id="j" d="M22.604 17.617a.829.829 0 0 0 0-1.168l-4.724-4.724a.829.829 0 0 0-1.168 0 .829.829 0 0 0 0 1.168l1.438 1.438c-.024.25-.095.67-.23 1.118l-1.882-1.882a.827.827 0 0 0-1.168 1.168l2.21 2.21a1.193 1.193 0 0 1-.313.197c-.704.299-1.85-.158-3.226-1.286a.924.924 0 1 0-1.505.812l.682 6.506a.918.918 0 0 0 .267.556.924.924 0 0 0 1.573-.75l-.476-4.528c1.281.68 2.424.81 3.412.39.325-.138.623-.336.893-.588l1.206 1.205a.829.829 0 0 0 1.169 0 .829.829 0 0 0 0-1.168l-1.41-1.41a6.616 6.616 0 0 0 .364-.983l1.72 1.719a.829.829 0 0 0 1.168 0"/>
        <filter id="i" width="109.2%" height="116%" x="-4.6%" y="-4%" filterUnits="objectBoundingBox">
            <feOffset dy="1" in="SourceAlpha" result="shadowOffsetOuter1"/>
            <feColorMatrix in="shadowOffsetOuter1" values="0 0 0 0 1 0 0 0 0 0.71372549 0 0 0 0 0 0 0 0 1 0"/>
        </filter>
        <path id="l" d="M37 24.244C37 23.56 36.43 23 35.736 23H25.5c-.696 0-1.264.56-1.264 1.244 0 .684.568 1.244 1.264 1.244h3.116c.244.291.624.815.962 1.435h-4.078c-.696 0-1.264.56-1.264 1.244 0 .685.568 1.245 1.264 1.245h4.79c-.017.19-.055.373-.126.543-.44 1.067-2.176 1.802-4.89 2.066a1.41 1.41 0 0 0-1.215.986c-.165.54.018 1.126.465 1.481l7.787 6.202c.262.209.577.31.89.31.412 0 .82-.175 1.101-.515.492-.598.4-1.474-.208-1.958l-5.421-4.317c2.124-.641 3.505-1.719 4.12-3.218.2-.493.309-1.023.33-1.58h2.612c.694 0 1.264-.56 1.264-1.245 0-.684-.57-1.244-1.264-1.244h-3.053a9.609 9.609 0 0 0-.673-1.435h3.726c.694 0 1.264-.56 1.264-1.244"/>
        <filter id="k" width="107.7%" height="111.1%" x="-3.8%" y="-2.8%" filterUnits="objectBoundingBox">
            <feOffset dy="1" in="SourceAlpha" result="shadowOffsetOuter1"/>
            <feColorMatrix in="shadowOffsetOuter1" values="0 0 0 0 1 0 0 0 0 0.71372549 0 0 0 0 0 0 0 0 1 0"/>
        </filter>
        <path id="m" d="M27.448 7.234c0 .893-.73 1.623-1.623 1.623H1.93c-.892 0-1.623-.73-1.623-1.623v-5.03c0-.892.731-1.622 1.623-1.622h23.895c.893 0 1.623.73 1.623 1.623v5.029z"/>
        <filter id="n" width="107.4%" height="124.2%" x="-3.7%" y="-12.1%" filterUnits="objectBoundingBox">
            <feOffset dy="-2" in="SourceAlpha" result="shadowOffsetInner1"/>
            <feComposite in="shadowOffsetInner1" in2="SourceAlpha" k2="-1" k3="1" operator="arithmetic" result="shadowInnerInner1"/>
            <feColorMatrix in="shadowInnerInner1" values="0 0 0 0 0.917647059 0 0 0 0 0.678431373 0 0 0 0 0.137254902 0 0 0 1 0"/>
        </filter>
        <path id="o" d="M27.178 6.699c0 .893-.73 1.623-1.623 1.623H1.66c-.892 0-1.623-.73-1.623-1.623v-5.03C.037.778.767.048 1.66.048h23.895c.893 0 1.623.73 1.623 1.623v5.029z"/>
        <filter id="p" width="107.4%" height="124.2%" x="-3.7%" y="-12.1%" filterUnits="objectBoundingBox">
            <feOffset dy="-2" in="SourceAlpha" result="shadowOffsetInner1"/>
            <feComposite in="shadowOffsetInner1" in2="SourceAlpha" k2="-1" k3="1" operator="arithmetic" result="shadowInnerInner1"/>
            <feColorMatrix in="shadowInnerInner1" values="0 0 0 0 0.917647059 0 0 0 0 0.678431373 0 0 0 0 0.137254902 0 0 0 1 0"/>
        </filter>
        <path id="q" d="M27.755 6.699c0 .893-.73 1.623-1.623 1.623H2.236c-.892 0-1.623-.73-1.623-1.623v-5.03c0-.892.73-1.622 1.623-1.622h23.896c.893 0 1.623.73 1.623 1.623v5.029z"/>
        <filter id="r" width="107.4%" height="124.2%" x="-3.7%" y="-12.1%" filterUnits="objectBoundingBox">
            <feOffset dy="-2" in="SourceAlpha" result="shadowOffsetInner1"/>
            <feComposite in="shadowOffsetInner1" in2="SourceAlpha" k2="-1" k3="1" operator="arithmetic" result="shadowInnerInner1"/>
            <feColorMatrix in="shadowInnerInner1" values="0 0 0 0 0.917647059 0 0 0 0 0.678431373 0 0 0 0 0.137254902 0 0 0 1 0"/>
        </filter>
        <path id="s" d="M27.932 7.163c0 .893-.73 1.623-1.623 1.623H2.413C1.52 8.786.79 8.056.79 7.163V2.135c0-.894.73-1.623 1.622-1.623h23.896c.893 0 1.623.73 1.623 1.623v5.028z"/>
        <filter id="t" width="107.4%" height="124.2%" x="-3.7%" y="-12.1%" filterUnits="objectBoundingBox">
            <feOffset dy="-2" in="SourceAlpha" result="shadowOffsetInner1"/>
            <feComposite in="shadowOffsetInner1" in2="SourceAlpha" k2="-1" k3="1" operator="arithmetic" result="shadowInnerInner1"/>
            <feColorMatrix in="shadowInnerInner1" values="0 0 0 0 0.917647059 0 0 0 0 0.678431373 0 0 0 0 0.137254902 0 0 0 1 0"/>
        </filter>
        <path id="u" d="M27.497 7.163c0 .893-.73 1.623-1.623 1.623H1.978c-.892 0-1.623-.73-1.623-1.623V2.135c0-.894.731-1.623 1.623-1.623h23.896c.893 0 1.623.73 1.623 1.623v5.028z"/>
        <filter id="v" width="107.4%" height="124.2%" x="-3.7%" y="-12.1%" filterUnits="objectBoundingBox">
            <feOffset dy="-2" in="SourceAlpha" result="shadowOffsetInner1"/>
            <feComposite in="shadowOffsetInner1" in2="SourceAlpha" k2="-1" k3="1" operator="arithmetic" result="shadowInnerInner1"/>
            <feColorMatrix in="shadowInnerInner1" values="0 0 0 0 0.917647059 0 0 0 0 0.678431373 0 0 0 0 0.137254902 0 0 0 1 0"/>
        </filter>
        <path id="w" d="M27.637 7.163c0 .893-.73 1.623-1.623 1.623H2.118c-.892 0-1.623-.73-1.623-1.623V2.135c0-.894.73-1.623 1.623-1.623h23.896c.893 0 1.623.73 1.623 1.623v5.028z"/>
        <filter id="x" width="107.4%" height="124.2%" x="-3.7%" y="-12.1%" filterUnits="objectBoundingBox">
            <feOffset dy="-2" in="SourceAlpha" result="shadowOffsetInner1"/>
            <feComposite in="shadowOffsetInner1" in2="SourceAlpha" k2="-1" k3="1" operator="arithmetic" result="shadowInnerInner1"/>
            <feColorMatrix in="shadowInnerInner1" values="0 0 0 0 0.932477679 0 0 0 0 0.741205513 0 0 0 0 0.167389015 0 0 0 1 0"/>
        </filter>
        <path id="y" d="M27.497 7.63c0 .892-.73 1.622-1.623 1.622H1.978c-.892 0-1.623-.73-1.623-1.623V2.601c0-.893.731-1.623 1.623-1.623h23.896c.893 0 1.623.73 1.623 1.623V7.63z"/>
        <filter id="z" width="107.4%" height="124.2%" x="-3.7%" y="-12.1%" filterUnits="objectBoundingBox">
            <feOffset dy="-2" in="SourceAlpha" result="shadowOffsetInner1"/>
            <feComposite in="shadowOffsetInner1" in2="SourceAlpha" k2="-1" k3="1" operator="arithmetic" result="shadowInnerInner1"/>
            <feColorMatrix in="shadowInnerInner1" values="0 0 0 0 0.917647059 0 0 0 0 0.678431373 0 0 0 0 0.137254902 0 0 0 1 0"/>
        </filter>
        <path id="A" d="M27.178 7.63c0 .892-.73 1.622-1.623 1.622H1.66c-.892 0-1.623-.73-1.623-1.623V2.601c0-.893.73-1.623 1.623-1.623h23.895c.893 0 1.623.73 1.623 1.623V7.63z"/>
        <filter id="B" width="107.4%" height="124.2%" x="-3.7%" y="-12.1%" filterUnits="objectBoundingBox">
            <feOffset dy="-2" in="SourceAlpha" result="shadowOffsetInner1"/>
            <feComposite in="shadowOffsetInner1" in2="SourceAlpha" k2="-1" k3="1" operator="arithmetic" result="shadowInnerInner1"/>
            <feColorMatrix in="shadowInnerInner1" values="0 0 0 0 0.917647059 0 0 0 0 0.678431373 0 0 0 0 0.137254902 0 0 0 1 0"/>
        </filter>
        <path id="C" d="M27.677 7.63c0 .892-.73 1.622-1.623 1.622H2.158c-.892 0-1.623-.73-1.623-1.623V2.601c0-.893.73-1.623 1.623-1.623h23.896c.893 0 1.623.73 1.623 1.623V7.63z"/>
        <filter id="D" width="107.4%" height="124.2%" x="-3.7%" y="-12.1%" filterUnits="objectBoundingBox">
            <feOffset dy="-2" in="SourceAlpha" result="shadowOffsetInner1"/>
            <feComposite in="shadowOffsetInner1" in2="SourceAlpha" k2="-1" k3="1" operator="arithmetic" result="shadowInnerInner1"/>
            <feColorMatrix in="shadowInnerInner1" values="0 0 0 0 0.932477679 0 0 0 0 0.741205513 0 0 0 0 0.167389015 0 0 0 1 0"/>
        </filter>
    </defs>
    <g fill="none" fill-rule="evenodd">
        <path fill="#22252A" d="M161.665 142.114V45.206c0-5.064-4.1-9.206-9.11-9.206H75.111C70.102 36 66 40.142 66 45.206v96.908h95.665z"/>
        <path fill="#CDA400" d="M70.356 142h87.426V57.228H70.356z"/>
        <path fill="#A38200" d="M70.356 63.705h87.426v-6.976H70.356z"/>
        <path fill="#FFF" d="M153.678 137.682a.36.36 0 0 1-.36.357h-78.07a.36.36 0 0 1-.36-.357v-20.287a.36.36 0 0 1 .36-.356h78.07c.198 0 .36.16.36.356v20.287z"/>
        <path stroke="#DCDCDC" stroke-linecap="round" stroke-linejoin="round" stroke-width=".5" d="M114.283 121.691v11.84"/>
        <path fill="#A38406" d="M83.983 132.639h-.566v1.26h-.71v-3.444h1.28c.408 0 .721.09.942.272.221.181.332.437.332.769 0 .235-.051.43-.153.588a1.04 1.04 0 0 1-.463.375l.746 1.407v.034h-.762l-.646-1.261zm-.566-.575h.573c.178 0 .316-.046.414-.136a.486.486 0 0 0 .147-.375.52.52 0 0 0-.139-.384c-.092-.093-.234-.14-.424-.14h-.57v1.035zm4.456.343H86.51v.922h1.6v.57H85.8v-3.444h2.304v.575H86.51v.82h1.363v.557zm3.355.345c-.027.37-.164.663-.41.876-.248.212-.573.319-.977.319-.442 0-.789-.149-1.042-.446-.253-.297-.38-.706-.38-1.224v-.211c0-.331.058-.623.175-.875.117-.253.284-.446.5-.581.217-.135.47-.203.757-.203.397 0 .717.107.96.32.243.213.383.512.421.896h-.71c-.017-.222-.079-.383-.185-.483-.107-.1-.269-.15-.486-.15-.237 0-.414.084-.532.254-.117.17-.177.432-.18.789v.26c0 .372.056.644.169.816.112.172.29.258.533.258.22 0 .383-.05.491-.15.108-.1.17-.255.186-.465h.71zm3.27 1.148h-.71v-1.477h-1.385v1.477h-.71v-3.445h.71v1.396h1.385v-1.396h.71v3.445zm2.647-.71H95.9l-.236.71h-.755l1.282-3.445h.658l1.29 3.445h-.755l-.24-.71zm-1.053-.575h.861l-.433-1.29-.428 1.29zm3.643.024h-.565v1.26h-.71v-3.444h1.28c.407 0 .721.09.942.272.22.181.331.437.331.769 0 .235-.05.43-.152.588a1.04 1.04 0 0 1-.463.375l.745 1.407v.034h-.762l-.646-1.261zm-.565-.575h.573c.178 0 .316-.046.414-.136a.486.486 0 0 0 .146-.375.52.52 0 0 0-.138-.384c-.092-.093-.234-.14-.425-.14h-.57v1.035zm5.108 1.4a1.232 1.232 0 0 1-.542.356 2.269 2.269 0 0 1-.776.127c-.298 0-.56-.065-.784-.195a1.302 1.302 0 0 1-.52-.567 1.994 1.994 0 0 1-.189-.873v-.234c0-.344.058-.642.174-.893.116-.252.283-.444.502-.578.218-.133.474-.2.768-.2.408 0 .728.098.958.293.23.194.367.478.41.85h-.692c-.031-.197-.101-.341-.209-.433-.108-.091-.257-.137-.446-.137-.241 0-.425.09-.551.272-.127.181-.19.451-.192.81v.22c0 .36.069.633.206.818.137.184.338.277.603.277.267 0 .457-.057.57-.17v-.595h-.645v-.522h1.355v1.374zm2.648-1.057h-1.363v.922h1.6v.57h-2.31v-3.444h2.305v.575h-1.595v.82h1.363v.557zM126.911 133.7h-.71v-1.477h-1.384v1.477h-.71v-3.445h.71v1.396h1.385v-1.396h.71v3.445zm1.375 0h-.71v-3.445h.71v3.445zm2.441-.904a.364.364 0 0 0-.142-.309c-.094-.072-.265-.147-.51-.227a3.623 3.623 0 0 1-.585-.236c-.391-.21-.587-.496-.587-.854 0-.186.052-.352.157-.498.105-.146.256-.26.452-.342a1.7 1.7 0 0 1 .662-.123c.246 0 .465.045.657.134.193.09.342.215.449.377.106.163.16.347.16.554h-.71c0-.158-.05-.28-.15-.368-.099-.087-.238-.131-.418-.131-.174 0-.309.037-.405.11a.347.347 0 0 0-.144.29c0 .112.056.206.169.281.113.076.279.147.498.213.404.122.698.272.883.452a.9.9 0 0 1 .276.672.829.829 0 0 1-.338.702c-.226.17-.53.254-.91.254-.266 0-.507-.049-.725-.146a1.146 1.146 0 0 1-.498-.398 1.021 1.021 0 0 1-.171-.587h.712c0 .38.227.57.681.57.169 0 .3-.034.395-.103a.335.335 0 0 0 .142-.287zm3.786-1.966h-1.055v2.87h-.71v-2.87h-1.041v-.575h2.806v.575zm3.1 1.225c0 .34-.06.637-.18.892-.12.256-.29.453-.514.592-.223.139-.479.208-.768.208a1.367 1.367 0 0 1-1.285-.794 2.02 2.02 0 0 1-.186-.879v-.17c0-.34.06-.638.183-.896.122-.258.295-.456.518-.594.223-.138.479-.207.766-.207.287 0 .542.07.765.207.223.138.396.336.518.594.122.258.184.556.184.893v.154zm-.719-.156c0-.361-.064-.636-.194-.823a.632.632 0 0 0-.553-.282.632.632 0 0 0-.552.278c-.129.185-.195.457-.196.815v.168c0 .352.065.625.194.819a.63.63 0 0 0 .558.29.625.625 0 0 0 .55-.28c.127-.186.192-.459.193-.817v-.168zm2.51.54h-.565v1.26h-.71v-3.444h1.28c.407 0 .721.09.942.272.22.181.331.437.331.769 0 .235-.05.43-.152.588a1.04 1.04 0 0 1-.463.375l.745 1.407v.034h-.761l-.646-1.261zm-.565-.575h.573c.178 0 .316-.046.414-.136a.486.486 0 0 0 .146-.375.52.52 0 0 0-.138-.384c-.092-.093-.234-.14-.425-.14h-.57v1.035zm3.345-.057l.717-1.552h.776l-1.13 2.195v1.25h-.722v-1.25l-1.131-2.195h.778l.712 1.552z"/>
        <g transform="translate(92 120.6)">
            <mask id="b" fill="#fff">
                <use xlink:href="#a"/>
            </mask>
            <path fill="#A38406" d="M-1.423 8.864h8.017V-1.567h-8.017z" mask="url(#b)"/>
        </g>
        <g transform="translate(129.2 120.6)">
            <mask id="d" fill="#fff">
                <use xlink:href="#c"/>
            </mask>
            <path fill="#A38406" d="M-.875 8.788h11.309V-1.49H-.875z" mask="url(#d)"/>
        </g>
        <path fill="#FFE442" d="M97.976 84.445c0 5.623-4.53 10.182-10.118 10.182S77.74 90.067 77.74 84.445c0-5.624 4.53-10.183 10.118-10.183s10.118 4.559 10.118 10.183"/>
        <path fill="#FFBE06" d="M96.386 84.445c0 4.739-3.818 8.582-8.528 8.582-4.71 0-8.528-3.843-8.528-8.582 0-4.74 3.818-8.583 8.528-8.583 4.71 0 8.528 3.843 8.528 8.583"/>
        <path fill="#FFF593" d="M91.122 83.233h-3.804v1.617h2.004v1.023l1.8-1.943z"/>
        <path fill="#FFF593" d="M87.44 86.76c-1.607 0-2.73-1.23-2.73-2.884v-.023c0-1.545 1.147-2.833 2.596-2.833 1.027 0 1.642.34 2.33.911l1.171-1.422c-.917-.778-1.872-1.204-3.44-1.204-2.669 0-4.6 2.067-4.6 4.571v.025c0 2.615 1.87 4.548 4.611 4.548.307 0 .597-.029.878-.072V86.66c-.259.06-.53.1-.817.1M93.838 86.154l-2.097.003 1.003-2.485-3.627 3.96h2.013L89.865 90.3z"/>
        <path fill="#FFF" d="M108.895 92.344c1.716 0 3.055-.663 4.03-1.495v-4.082h-4.095v1.73h2.158v1.442c-.546.39-1.248.598-2.028.598-1.729 0-2.938-1.313-2.938-3.08v-.027c0-1.65 1.235-3.029 2.795-3.029 1.105 0 1.768.364 2.51.975l1.26-1.52c-.988-.833-2.015-1.288-3.705-1.288-2.873 0-4.953 2.21-4.953 4.888v.026c0 2.795 2.015 4.862 4.966 4.862zm10.738 0c-2.912 0-5.005-2.17-5.005-4.862v-.026c0-2.678 2.12-4.888 5.031-4.888 2.912 0 5.005 2.171 5.005 4.862v.026c0 2.678-2.119 4.888-5.03 4.888zm.026-1.833c1.716 0 2.912-1.365 2.912-3.029v-.026c0-1.664-1.222-3.055-2.938-3.055-1.716 0-2.912 1.365-2.912 3.03v.025c0 1.664 1.222 3.055 2.938 3.055zm6.994 1.677h6.76v-1.82h-4.77v-7.644h-1.99v9.464zm8.463 0v-9.464h3.653c2.977 0 5.031 2.041 5.031 4.706v.026c0 2.665-2.054 4.732-5.03 4.732h-3.654zm3.653-7.657h-1.664v5.85h1.664c1.755 0 2.938-1.183 2.938-2.899v-.026c0-1.716-1.183-2.925-2.938-2.925zM105.081 77.669h.688c.335 0 .554-.176.554-.45v-.007c0-.285-.208-.447-.558-.447h-.684v.904zm-.442 1.318v-2.621h1.162c.328 0 .587.097.756.263a.78.78 0 0 1 .213.561v.007c0 .429-.26.688-.634.789l.72 1h-.525l-.656-.925h-.594v.926h-.442zm3.51.043c-.57 0-1.009-.414-1.009-1.023V78c0-.565.4-1.026.962-1.026.622 0 .94.49.94 1.059 0 .04 0 .079-.004.122h-1.462c.047.335.28.518.58.518a.72.72 0 0 0 .543-.237l.26.227c-.191.223-.447.367-.81.367zm-.58-1.163h1.044c-.033-.302-.205-.536-.515-.536-.284 0-.486.22-.53.536zm2.876 1.163c.382 0 .609-.155.807-.371l-.263-.256c-.148.148-.306.249-.522.249-.357 0-.609-.288-.609-.648v-.007c0-.353.249-.645.587-.645.23 0 .378.108.519.256l.273-.292a.992.992 0 0 0-.788-.342c-.59 0-1.023.468-1.023 1.03v.007c0 .558.432 1.019 1.02 1.019zm1.257-.043h.432V77.87c0-.314.19-.5.464-.5.277 0 .436.18.436.492v1.124h.435v-1.253c0-.461-.263-.76-.709-.76-.31 0-.497.162-.626.35v-1.07h-.432v2.733zm3.034-.278c.31 0 .544-.176.544-.432v-.144a1.366 1.366 0 0 0-.464-.079c-.3 0-.476.13-.476.339v.007c0 .198.177.31.396.31zm-.115.317c-.37 0-.705-.212-.705-.608v-.007c0-.425.334-.634.817-.634.223 0 .385.032.54.083v-.05c0-.289-.177-.443-.5-.443-.224 0-.39.046-.57.122l-.115-.338c.216-.098.429-.162.742-.162.292 0 .511.079.652.22.144.14.208.345.208.604v1.174h-.42v-.252a.804.804 0 0 1-.649.291zm1.65-.04h.431v-.755c0-.53.288-.796.688-.796h.025v-.457c-.35-.015-.583.19-.713.49v-.454h-.432v1.973zm2.365-.525c.32 0 .597-.227.597-.554v-.008c0-.334-.277-.558-.597-.558-.32 0-.573.224-.573.555v.007c0 .331.256.558.573.558zm-.033 1.13c-.324 0-.626-.082-.885-.237l.165-.328c.213.137.44.213.71.213.406 0 .633-.21.633-.616v-.158c-.166.212-.374.363-.702.363a.885.885 0 0 1-.9-.921v-.008a.89.89 0 0 1 .9-.925c.335 0 .544.155.698.342v-.302h.436v1.573c0 .331-.09.58-.252.742-.18.18-.454.262-.803.262zm2.56-.561c-.569 0-1.008-.414-1.008-1.023V78c0-.565.4-1.026.961-1.026.623 0 .94.49.94 1.059 0 .04 0 .079-.004.122h-1.462c.047.335.281.518.58.518a.72.72 0 0 0 .544-.237l.259.227c-.19.223-.447.367-.81.367zm-.58-1.163h1.044c-.032-.302-.205-.536-.515-.536-.284 0-.486.22-.529.536zm3.172 1.12h.432v-1.901l.839 1.249h.014l.842-1.256v1.908h.44v-2.621h-.468l-.818 1.263-.813-1.263h-.468v2.62zm4.125.043c-.568 0-1.008-.414-1.008-1.023V78c0-.565.4-1.026.962-1.026.622 0 .94.49.94 1.059 0 .04 0 .079-.004.122h-1.462c.047.335.28.518.58.518a.72.72 0 0 0 .543-.237l.26.227c-.191.223-.447.367-.81.367zm-.58-1.163h1.045c-.033-.302-.205-.536-.515-.536-.284 0-.486.22-.53.536zm1.966 1.12h.432v-1.113c0-.31.18-.504.44-.504.259 0 .41.173.41.486v1.13h.436v-1.115c0-.324.183-.5.435-.5.26 0 .414.172.414.492v1.124h.432v-1.253c0-.483-.263-.76-.695-.76-.306 0-.51.14-.67.35-.104-.21-.305-.35-.593-.35-.306 0-.479.166-.609.346v-.306h-.432v1.973zm4.702.04c-.331 0-.54-.166-.684-.354v.314h-.432v-2.733h.432v1.098c.148-.212.36-.378.684-.378.464 0 .918.367.918 1.023v.007c0 .651-.45 1.022-.918 1.022zm-.1-.375c.316 0 .579-.249.579-.648v-.007c0-.393-.267-.648-.58-.648-.313 0-.59.259-.59.648v.007c0 .389.277.648.59.648zm2.422.378c-.569 0-1.008-.414-1.008-1.023V78c0-.565.4-1.026.961-1.026.623 0 .94.49.94 1.059 0 .04 0 .079-.004.122h-1.461c.046.335.28.518.58.518a.72.72 0 0 0 .543-.237l.26.227c-.192.223-.447.367-.81.367zm-.58-1.163h1.044c-.032-.302-.205-.536-.514-.536-.285 0-.486.22-.53.536zm1.966 1.12h.432v-.756c0-.53.288-.796.688-.796h.025v-.457c-.35-.015-.583.19-.713.49v-.454h-.432v1.973zm2.243.036c.41 0 .73-.206.73-.616V78.4c0-.357-.327-.483-.615-.573-.238-.079-.45-.14-.45-.288v-.007c0-.119.104-.205.288-.205.166 0 .367.072.558.187l.173-.31a1.36 1.36 0 0 0-.724-.223c-.392 0-.695.227-.695.598v.007c0 .375.328.49.62.576.234.072.446.126.446.285v.007c0 .137-.119.227-.317.227-.209 0-.435-.087-.651-.245l-.198.295c.244.194.554.292.835.292zm1.227-.036h.432V77.87c0-.314.191-.5.465-.5.277 0 .435.18.435.492v1.124h.436v-1.253c0-.461-.263-.76-.71-.76-.309 0-.496.162-.626.35v-1.07h-.432v2.733zm2.355-2.29h.471v-.418h-.471v.418zm.018 2.29h.435v-1.973h-.435v1.973zm2.08-.335c.317 0 .58-.249.58-.648v-.007c0-.393-.266-.648-.58-.648-.313 0-.59.259-.59.648v.007c0 .389.277.648.59.648zm-1.015.932v-2.57h.432v.338c.148-.212.36-.378.684-.378.465 0 .918.367.918 1.023v.007c0 .651-.45 1.022-.918 1.022-.33 0-.54-.165-.684-.353v.911h-.432z"/>
        <g stroke="#A6ACB2" stroke-linecap="round" stroke-linejoin="round" stroke-width="2">
            <path d="M113.04 47.366h9M107.233 47.366h-1.787"/>
        </g>
        <path fill="#FFF7D5" d="M179.484 83.139c-6.033-6.033-6.033-15.813 0-21.847 6.033-6.032 15.813-6.032 21.846 0 6.032 6.034 6.032 15.814 0 21.847-6.033 6.032-15.813 6.032-21.846 0z"/>
        <path fill="#FFC150" d="M180.41 60.302c6.537-5.484 16.28-4.632 21.765 1.904l-23.668 19.859c-5.483-6.536-4.631-16.279 1.904-21.763z"/>
        <g transform="translate(174 54.417)">
            <use fill="#FFD550" xlink:href="#e"/>
            <use fill="#000" filter="url(#f)" xlink:href="#e"/>
        </g>
        <g transform="translate(174 54.417)">
            <use fill="#FFD550" xlink:href="#g"/>
            <use fill="#000" filter="url(#h)" xlink:href="#g"/>
        </g>
        <path fill="#FFB600" d="M196.603 73.034a.829.829 0 0 0 0-1.168l-4.724-4.724a.829.829 0 0 0-1.167 0 .829.829 0 0 0 0 1.168l1.438 1.438c-.025.25-.096.67-.23 1.118l-1.881-1.882a.827.827 0 0 0-1.168 1.168l2.21 2.21a1.193 1.193 0 0 1-.313.197c-.706.299-1.852-.158-3.228-1.286a.924.924 0 1 0-1.505.812l.683 6.506a.918.918 0 0 0 .266.556.924.924 0 0 0 1.573-.75l-.475-4.528c1.281.68 2.423.81 3.412.39.324-.138.623-.336.893-.588l1.206 1.205a.829.829 0 0 0 1.168 0 .829.829 0 0 0 0-1.168l-1.409-1.41a6.616 6.616 0 0 0 .364-.983l1.72 1.719a.829.829 0 0 0 1.167 0"/>
        <g transform="translate(174 54.417)">
            <use fill="#000" filter="url(#i)" xlink:href="#j"/>
            <use fill="#D14D2B" xlink:href="#j"/>
        </g>
        <g stroke="#FFC692" stroke-linecap="round" stroke-linejoin="round" stroke-width="2">
            <path d="M181.969 53.638v-9.621M190.075 34.761v15.09M197.882 46.346v5.78"/>
        </g>
        <g stroke="#FF8F56" stroke-linecap="round" stroke-linejoin="round" stroke-width="2" opacity=".7">
            <path d="M219.037 73.35l-3.246 3.246M215.791 73.35l3.246 3.246"/>
        </g>
        <g stroke-linecap="round" stroke-linejoin="round" stroke-width="2">
            <path stroke="#FF8F56" d="M289.53 74.343l-4.26 4.261M271.433 92.44l-4.261 4.262M267.172 74.343l4.26 4.261M285.27 92.44l4.26 4.262" opacity=".6"/>
            <path stroke="#FC9449" d="M278.35 65.523v10.215M278.35 95.307v10.216M258.35 85.523h10.217M288.135 85.523h10.216"/>
        </g>
        <g stroke="#FC9449" stroke-linecap="round" stroke-linejoin="round" stroke-width="2">
            <path d="M51.27 72.037v-2.18M51.27 65.68v-2.181M55.538 67.768h-2.18M49.18 67.768H47"/>
        </g>
        <g stroke="#FC9449" stroke-linecap="round" stroke-linejoin="round" stroke-width="2">
            <path d="M45.267 113.283l-2.77-2.77M33.503 101.519l-2.77-2.77M45.267 98.75l-2.77 2.77M33.503 110.513l-2.77 2.77M51 106.016h-6.641M31.64 106.016H25M38 93.016v6.641M38 112.376v6.64"/>
        </g>
        <g>
            <path fill="#FFF7D5" d="M268.064 102.532c0 11.891-9.64 21.532-21.532 21.532-11.891 0-21.532-9.64-21.532-21.532S234.64 81 246.532 81s21.532 9.64 21.532 21.532"/>
            <path fill="#FFC150" d="M231.225 87.225c8.409-8.408 22.043-8.408 30.451 0-8.377 9.701-19.989 19.751-30.45 30.451-8.409-8.408-8.41-22.042 0-30.45z"/>
            <path fill="#FFD550" d="M263.265 102.602c0 9.29-7.531 16.822-16.822 16.822-9.29 0-16.822-7.532-16.822-16.822s7.532-16.822 16.822-16.822 16.822 7.531 16.822 16.822"/>
            <path fill="#FFB600" d="M235.059 114.986a16.777 16.777 0 0 1-5.438-12.384c0-9.29 7.532-16.822 16.822-16.822 4.9 0 9.31 2.094 12.385 5.437a16.762 16.762 0 0 0-11.385-4.437c-9.29 0-16.822 7.531-16.822 16.822 0 4.39 1.682 8.389 4.438 11.384z"/>
            <path fill="#FFB600" d="M253 97.244c0-.685-.57-1.244-1.264-1.244H241.5c-.696 0-1.264.56-1.264 1.244 0 .684.568 1.244 1.264 1.244h3.116c.244.291.624.815.962 1.435h-4.078c-.696 0-1.264.56-1.264 1.244 0 .685.568 1.245 1.264 1.245h4.79c-.017.19-.055.373-.126.543-.44 1.067-2.176 1.802-4.89 2.066a1.41 1.41 0 0 0-1.215.986c-.165.54.018 1.126.465 1.481l7.787 6.202c.262.209.577.31.89.31.412 0 .82-.175 1.101-.515.492-.598.4-1.474-.208-1.958l-5.421-4.317c2.124-.641 3.505-1.719 4.12-3.218.2-.493.309-1.023.33-1.58h2.612c.694 0 1.264-.56 1.264-1.245 0-.684-.57-1.244-1.264-1.244h-3.053a9.609 9.609 0 0 0-.673-1.435h3.726c.694 0 1.264-.56 1.264-1.244"/>
            <g transform="translate(216 72)">
                <use fill="#000" filter="url(#k)" xlink:href="#l"/>
                <use fill="#D14D2B" xlink:href="#l"/>
            </g>
        </g>
        <g>
            <g transform="translate(184 108.02)">
                <use fill="#FCC41A" xlink:href="#m"/>
                <use fill="#000" filter="url(#n)" xlink:href="#m"/>
            </g>
            <path fill="#FFF" d="M190.04 116.877h3.689v-8.275h-3.689zM186.882 116.877h1.583v-8.275h-1.583z" opacity=".4"/>
        </g>
        <g>
            <g transform="translate(149 117.02)">
                <use fill="#FCC41A" xlink:href="#o"/>
                <use fill="#000" filter="url(#p)" xlink:href="#o"/>
            </g>
            <path fill="#FFF" d="M154.77 125.342h3.689v-8.275h-3.689zM151.611 125.342h1.583v-8.275h-1.583z" opacity=".4"/>
        </g>
        <g>
            <g transform="translate(181 117.02)">
                <use fill="#FCC41A" xlink:href="#q"/>
                <use fill="#000" filter="url(#r)" xlink:href="#q"/>
            </g>
            <path fill="#FFF" d="M187.347 125.342h3.689v-8.275h-3.689zM184.187 125.342h1.584v-8.275h-1.584z" opacity=".4"/>
        </g>
        <g>
            <g transform="translate(144 125.02)">
                <use fill="#FCC41A" xlink:href="#s"/>
                <use fill="#000" filter="url(#t)" xlink:href="#s"/>
            </g>
            <path fill="#FFF" d="M150.523 133.806h3.689v-8.274h-3.689zM147.365 133.806h1.583v-8.274h-1.583z" opacity=".4"/>
        </g>
        <g>
            <g transform="translate(188 125.02)">
                <use fill="#FCC41A" xlink:href="#u"/>
                <use fill="#000" filter="url(#v)" xlink:href="#u"/>
            </g>
            <path fill="#FFF" d="M193.089 125.532v8.274M189.93 133.806h1.584v-8.274h-1.584z"/>
        </g>
        <g>
            <g transform="translate(165 125.02)">
                <use fill="#FFD557" xlink:href="#w"/>
                <use fill="#000" filter="url(#x)" xlink:href="#w"/>
            </g>
            <path fill="#FFF" d="M171.229 133.806h3.689v-8.274h-3.689zM168.069 133.806h1.584v-8.274h-1.584z" opacity=".4"/>
        </g>
        <g>
            <g transform="translate(184 132.72)">
                <use fill="#FCC41A" xlink:href="#y"/>
                <use fill="#000" filter="url(#z)" xlink:href="#y"/>
            </g>
            <path fill="#FFF" d="M190.089 141.972h3.689v-8.274h-3.689zM186.931 141.972h1.583v-8.274h-1.583z"/>
        </g>
        <g>
            <g transform="translate(149 132.72)">
                <use fill="#FCC41A" xlink:href="#A"/>
                <use fill="#000" filter="url(#B)" xlink:href="#A"/>
            </g>
            <path fill="#FFF" d="M154.77 141.972h3.689v-8.274h-3.689zM151.611 141.972h1.583v-8.274h-1.583z" opacity=".4"/>
        </g>
        <g>
            <g transform="translate(169 132.72)">
                <use fill="#FFD557" xlink:href="#C"/>
                <use fill="#000" filter="url(#D)" xlink:href="#C"/>
            </g>
            <path fill="#FFF" d="M175.269 141.972h3.689v-8.274h-3.689zM172.109 141.972h1.584v-8.274h-1.584z" opacity=".4"/>
        </g>
    </g>
</svg>
