<svg xmlns="http://www.w3.org/2000/svg" width="321" height="143" viewBox="0 0 321 143">
    <g fill="none" fill-rule="evenodd">
        <path fill="#FFCD2E" d="M138.048 67.111a7.559 7.559 0 1 1-15.117-.001 7.559 7.559 0 0 1 15.117.001z"/>
        <path fill="#FFF" d="M133.221 64.256a.535.535 0 0 0-.532-.533h-4.299a.533.533 0 0 0 0 1.065h1.31c.101.123.262.347.403.612h-1.713a.532.532 0 0 0 0 1.063h2.012a.808.808 0 0 1-.052.232c-.186.457-.915.77-2.054.883a.594.594 0 0 0-.317 1.055l3.272 2.648a.592.592 0 0 0 .837-.087.596.596 0 0 0-.088-.836l-2.278-1.845c.893-.274 1.474-.734 1.732-1.375.084-.21.13-.437.138-.675h1.097a.533.533 0 0 0 .532-.531.534.534 0 0 0-.532-.532h-1.282a4.257 4.257 0 0 0-.282-.612h1.564c.292 0 .532-.24.532-.532"/>
        <path fill="#FFCD2E" d="M138.048 89.212a7.559 7.559 0 1 1-15.117 0 7.559 7.559 0 0 1 15.117 0"/>
        <path fill="#FFF" d="M133.221 86.357a.534.534 0 0 0-.532-.531h-4.299a.532.532 0 0 0 0 1.063h1.31c.101.124.262.348.403.613h-1.713a.532.532 0 0 0 0 1.062h2.012a.808.808 0 0 1-.052.233c-.186.456-.915.77-2.054.882a.596.596 0 0 0-.317 1.055l3.272 2.649a.592.592 0 0 0 .837-.087.596.596 0 0 0-.088-.837l-2.278-1.844c.893-.275 1.474-.734 1.732-1.375.084-.21.13-.437.138-.676h1.097a.533.533 0 0 0 .532-.53.534.534 0 0 0-.532-.532h-1.282a4.257 4.257 0 0 0-.282-.613h1.564c.292 0 .532-.24.532-.532"/>
        <path fill="#FFCD2E" d="M138.048 110.436a7.559 7.559 0 1 1-15.117-.001 7.559 7.559 0 0 1 15.117.001"/>
        <path fill="#FFF" d="M133.221 107.58a.534.534 0 0 0-.531-.531h-4.3a.532.532 0 0 0 0 1.063h1.31c.102.124.262.348.404.613h-1.714a.532.532 0 0 0 0 1.063h2.013a.81.81 0 0 1-.053.233c-.186.456-.915.769-2.054.883a.595.595 0 0 0-.317 1.053l3.273 2.65a.595.595 0 0 0 .748-.925l-2.277-1.844c.893-.274 1.474-.733 1.731-1.374.084-.21.13-.437.138-.675h1.098c.291 0 .531-.24.531-.532a.534.534 0 0 0-.531-.532h-1.283a4.146 4.146 0 0 0-.282-.613h1.565c.291 0 .531-.239.531-.531"/>
        <path stroke="#EBEBEB" stroke-width="1.778" d="M99.7 78.6h102.123M100.589 99.825h101.234M140.753 57.377v64.785M120.226 55.624v66.538M161.28 55.624v66.538M181.808 56.798v65.364"/>
        <path fill="#ED6745" d="M195.257 41.232h-88.992c-4.59 0-6.566 1.978-6.566 6.569v9.576h102.123V47.8c0-4.591-1.976-6.569-6.565-6.569"/>
        <path stroke="#323232" stroke-linecap="round" stroke-linejoin="round" stroke-width="2.668" d="M119.45 46.773v-10.67M181.182 46.773v-10.67M202.335 115.049c0 3.911-3.202 7.113-7.114 7.113h-88.92c-3.912 0-7.113-3.202-7.113-7.113V47.914c0-3.912 3.201-7.113 7.113-7.113h88.92c3.912 0 7.114 3.2 7.114 7.113v67.135z"/>
        <path fill="#FFF" d="M219.085 132.341c2.446 0 4.446-2 4.446-4.446v-53.19c0-2.446-2-4.447-4.446-4.447h-25.137a4.46 4.46 0 0 0-4.446 4.446v53.191c0 2.445 2 4.446 4.446 4.446h25.137z"/>
        <path stroke="#323232" stroke-linecap="round" stroke-linejoin="round" stroke-width="2.668" d="M219.085 132.341c2.446 0 4.446-2 4.446-4.446v-53.19c0-2.446-2-4.447-4.446-4.447h-25.137a4.46 4.46 0 0 0-4.446 4.446v53.191c0 2.445 2 4.446 4.446 4.446h25.137zM204.641 125.245h3.751"/>
        <path fill="#ED6745" d="M193.654 119.465h25.727V76.784h-25.727z"/>
        <path fill="#FFF" d="M212.065 91.979c0-.594-.486-1.08-1.08-1.08h-8.734c-.594 0-1.08.486-1.08 1.08 0 .594.486 1.08 1.08 1.08h2.66c.208.253.532.708.82 1.245h-3.48c-.594 0-1.08.487-1.08 1.08 0 .595.486 1.081 1.08 1.081h4.087a1.604 1.604 0 0 1-.107.471c-.375.928-1.857 1.564-4.173 1.795a1.209 1.209 0 0 0-.642 2.141l6.647 5.384a1.21 1.21 0 0 0 1.522-1.879l-4.626-3.747c1.813-.557 2.991-1.491 3.516-2.794.172-.428.264-.886.28-1.371h2.23c.594 0 1.08-.486 1.08-1.08 0-.594-.486-1.08-1.08-1.08h-2.605a8.365 8.365 0 0 0-.573-1.246h3.178c.594 0 1.08-.486 1.08-1.08"/>
        <g stroke="#FFC388" stroke-linecap="round" stroke-linejoin="round">
            <g stroke-width="1.778">
                <path d="M252.276 41.382l-2.947 2.947M239.754 53.904l-2.948 2.948M236.806 41.382l2.947 2.947M249.328 53.904l2.948 2.948M244.541 35.279v7.068M244.541 55.888v7.068M230.702 49.117h7.07M251.31 49.117h7.07"/>
            </g>
            <g stroke-width="1.334">
                <path d="M82.89 38.118v-1.81M82.89 32.844v-1.808M86.432 34.576h-1.809M81.159 34.576H79.35"/>
            </g>
            <g stroke-width="1.778">
                <path d="M73.498 105.95l-2.388-2.39M63.353 95.804l-2.389-2.39M73.498 93.415l-2.388 2.39M63.353 103.561l-2.389 2.389M78.444 99.682h-5.727M61.746 99.682H56.02M67.231 88.47v5.727M67.231 105.168v5.726"/>
            </g>
        </g>
    </g>
</svg>
