<svg xmlns="http://www.w3.org/2000/svg" xmlns:xlink="http://www.w3.org/1999/xlink" width="319" height="141" viewBox="0 0 319 141">
    <defs>
        <path id="a" d="M18.68 46.641A20.406 20.406 0 0 1 16 36.377C16.07 25.055 25.302 15.932 36.623 16c8.385.05 15.564 5.128 18.697 12.357C51.812 22.208 45.212 18.046 37.623 18 26.302 17.932 17.07 27.055 17 38.377a20.43 20.43 0 0 0 1.68 8.264z"/>
        <filter id="b" width="103.8%" height="104.9%" x="-1.9%" y="-2.4%" filterUnits="objectBoundingBox">
            <feOffset dx="1" dy="1.5" in="SourceAlpha" result="shadowOffsetInner1"/>
            <feComposite in="shadowOffsetInner1" in2="SourceAlpha" k2="-1" k3="1" operator="arithmetic" result="shadowInnerInner1"/>
            <feColorMatrix in="shadowInnerInner1" values="0 0 0 0 1 0 0 0 0 0.71372549 0 0 0 0 0 0 0 0 1 0"/>
        </filter>
    </defs>
    <g fill="none" fill-rule="evenodd">
        <g stroke="#F7896D" stroke-linecap="round" stroke-linejoin="round">
            <g stroke-width="1.778">
                <path d="M145.708 105.37l-2.358-2.358M135.692 95.353l-2.358-2.358M145.708 92.995l-2.358 2.358M135.692 103.011l-2.358 2.359M150.59 99.183h-5.653M134.105 99.183h-5.653M139.52 88.113v5.653M139.52 104.598v5.653"/>
            </g>
            <g stroke-width="1.334" opacity=".6">
                <path d="M151.93 23.908l-4.812 4.811M147.118 23.908l4.811 4.811"/>
            </g>
        </g>
        <g stroke="#F7896D" stroke-linecap="round" stroke-linejoin="round" stroke-width="1.778">
            <path d="M234.334 11.027l-3.998 3.997M217.355 28.006l-3.998 3.997M213.357 11.027l3.998 3.997M230.336 28.006l3.997 3.997M223.845 2.752v9.583M223.845 30.695v9.584M205.081 21.515h9.584M233.025 21.515h9.584"/>
        </g>
        <path fill="#FFF" d="M223.054 69.237h55.779v31.12h-46.914z"/>
        <path fill="#FFF" d="M223.054 54.443l16.287 16.286-12.814 2.765-9.674-9.673z"/>
        <path fill="#FFF" d="M233.697 99.17l-4.702 5.617h-59.608V62.55h56.274z"/>
        <path fill="#D9DBDD" d="M277.578 96.802h-46.132l-3.706 4.428h-58.354v3.557h59.609l3.707-4.429h46.13z"/>
        <path fill="#22252A" d="M215.129 104.7c0 2.935-2.4 5.335-5.335 5.335h-37.515c-2.935 0-5.336-2.4-5.336-5.335V33.564c0-2.934 2.401-5.335 5.336-5.335h37.515c2.935 0 5.335 2.401 5.335 5.335V104.7z"/>
        <path fill="#E6E6E6" d="M170.522 93.898h41.028V37.015h-41.028z"/>
        <path stroke="#A6ACB2" stroke-linecap="round" stroke-linejoin="round" stroke-width="3" d="M187.479 101.95h7.113"/>
        <path fill="#FFF" d="M211.266 62.821l-5.184 5.184c-3.552 3.552-9.363 3.552-12.915 0l-1.336-1.336 12.225-12.225"/>
        <path fill="#FFF" d="M204.055 54.443h19l-1.87 11.014H206.3z"/>
        <path fill="#22C997" d="M236.328 114.706a3.568 3.568 0 0 1-3.556 3.557h-31.165a3.567 3.567 0 0 1-3.557-3.557V83.542c0-1.956 1.6-3.557 3.557-3.557h31.165a3.568 3.568 0 0 1 3.556 3.557v31.164z"/>
        <path fill="#0E8E68" d="M210.985 96.142l1.9-1.899.905-.904.047-.048.285-.286a.675.675 0 0 0 0-.952l-4.215-4.216a.674.674 0 0 0-.952 0l-.285.286-.048.047.003.002c-4.485 4.53-3.526 10.029.996 14.552l3.968 3.968c4.523 4.522 10.022 5.48 14.552.997l.002.002.333-.333a.674.674 0 0 0 0-.952l-4.216-4.215a.675.675 0 0 0-.952 0l-.286.285-.048.048-.904.904-1.9 1.9a1.35 1.35 0 0 1-1.904 0l-7.28-7.281a1.35 1.35 0 0 1 0-1.905"/>
        <path fill="#383838" d="M220.268 65.457H208.63l-2.547 2.547c-3.552 3.552-9.365 3.552-12.917 0l-1.335-1.335v2.816l1.335 1.335c3.679 3.207 9.301 2.674 12.917 0 0 0 1.182-.767 3.072-2.824l11.113-2.54z" opacity=".2"/>
        <path fill="#48C0EF" d="M183.695 83.37c0 1.956-1.6 3.557-3.557 3.557h-31.164a3.568 3.568 0 0 1-3.557-3.557V52.205a3.568 3.568 0 0 1 3.557-3.557h31.164c1.956 0 3.557 1.601 3.557 3.557V83.37z"/>
        <path fill="#1A83AC" d="M167.752 71.744V60.52h4.908v11.224H177L170.206 78l-6.794-6.256h4.34zm-7.504-7.488V75.48h-4.907V64.256H151L157.795 58l6.794 6.256h-4.34z"/>
        <path fill="#D14D2B" d="M329.51 108.18h-70.92c-3.073 0-5.59-1.024-5.59-2.274V64.274c0-1.25 2.517-2.274 5.59-2.274h70.92v46.18z"/>
        <path d="M309.51 103.668v4.56H257.13c-2.27 0-4.129-1.201-4.129-2.668V101c0 1.467 1.86 2.668 4.129 2.668h52.381z"/>
        <g>
            <path stroke="#D14D2B" stroke-linecap="round" stroke-linejoin="round" stroke-width="8" d="M89 70h19"/>
            <path fill="#D14D2B" d="M105 59l12.231 11L105 81z"/>
            <path fill="#FFF7D5" d="M96 69.653C95.915 83.736 84.43 95.085 70.347 95 56.264 94.915 44.915 83.43 45 69.347 45.085 55.264 56.57 43.917 70.653 44 84.736 44.085 96.085 55.57 96 69.653"/>
            <path fill="#FFC150" d="M52.465 87.528C42.433 77.375 42.42 61.12 52.44 51.223c10.018-9.898 26.274-9.69 36.307.462L52.465 87.528z"/>
            <path fill="#FFD550" d="M91 69.623C90.932 80.944 81.699 90.067 70.377 90 59.056 89.93 49.933 80.698 50 69.377 50.07 58.055 59.302 48.932 70.623 49c11.322.068 20.445 9.3 20.377 20.623"/>
            <g transform="translate(34 33)">
                <use fill="#FFD550" xlink:href="#a"/>
                <use fill="#000" filter="url(#b)" xlink:href="#a"/>
            </g>
            <path fill="#FFB600" d="M68.647 77.1c-1.75 0-2.91-.52-3.812-1.421-.935-.936-1.542-2.34-1.542-4.73v-.035c0-3.916 1.889-6.914 5.805-6.914 1.733 0 2.946.485 4.141 1.386l-1.611 2.391c-.78-.589-1.49-.953-2.513-.953-1.836 0-2.339 1.716-2.426 2.755h.018c.762-.623 1.611-.953 2.703-.953 2.27 0 4.21 1.387 4.21 3.934v.052c0 2.755-2.218 4.488-4.973 4.488zm-.138-2.652c1.16 0 1.836-.71 1.836-1.663v-.035c0-.953-.71-1.663-1.87-1.663-1.145 0-1.838.693-1.838 1.646v.035c0 .935.728 1.68 1.872 1.68zM81.14 77.1c-3.552 0-5.787-2.929-5.787-6.516v-.034c0-3.587 2.27-6.55 5.822-6.55 3.518 0 5.77 2.928 5.77 6.515v.035c0 3.587-2.27 6.55-5.805 6.55zm.035-2.963c1.456 0 2.391-1.49 2.391-3.553v-.034c0-2.062-.987-3.587-2.426-3.587-1.455 0-2.408 1.473-2.408 3.552v.035c0 2.08.97 3.587 2.443 3.587z"/>
            <path fill="#D14D2B" d="M68.647 76.1c-1.75 0-2.91-.52-3.812-1.421-.935-.936-1.542-2.34-1.542-4.73v-.035c0-3.916 1.889-6.914 5.805-6.914 1.733 0 2.946.485 4.141 1.386l-1.611 2.391c-.78-.589-1.49-.953-2.513-.953-1.836 0-2.339 1.716-2.426 2.755h.018c.762-.623 1.611-.953 2.703-.953 2.27 0 4.21 1.387 4.21 3.934v.052c0 2.755-2.218 4.488-4.973 4.488zm-.138-2.652c1.16 0 1.836-.71 1.836-1.663v-.035c0-.953-.71-1.663-1.87-1.663-1.145 0-1.838.693-1.838 1.646v.035c0 .935.728 1.68 1.872 1.68zM81.14 76.1c-3.552 0-5.787-2.929-5.787-6.516v-.034c0-3.587 2.27-6.55 5.822-6.55 3.518 0 5.77 2.928 5.77 6.515v.035c0 3.587-2.27 6.55-5.805 6.55zm.035-2.963c1.456 0 2.391-1.49 2.391-3.553v-.034c0-2.062-.987-3.587-2.426-3.587-1.455 0-2.408 1.473-2.408 3.552v.035c0 2.08.97 3.587 2.443 3.587z"/>
            <path fill="#FFB600" d="M61.8 66.06c0-.418-.35-.76-.779-.76h-6.297a.771.771 0 0 0-.779.76c0 .419.35.76.779.76h1.917c.15.179.384.499.593.878h-2.51a.771.771 0 0 0-.779.76c0 .418.35.76.779.76h2.947c-.01.116-.035.228-.078.332-.27.653-1.339 1.101-3.008 1.263a.866.866 0 0 0-.748.602.84.84 0 0 0 .286.906l4.792 3.79a.884.884 0 0 0 1.225-.127.836.836 0 0 0-.129-1.196l-3.335-2.637c1.307-.393 2.157-1.05 2.535-1.968.125-.3.19-.624.203-.965h1.607a.772.772 0 0 0 .779-.76c0-.418-.35-.76-.779-.76h-1.877a5.774 5.774 0 0 0-.275-.619 6.889 6.889 0 0 0-.139-.258h2.291a.772.772 0 0 0 .779-.76"/>
            <path fill="#D14D2B" d="M61.8 65.06c0-.418-.35-.76-.779-.76h-6.297a.771.771 0 0 0-.779.76c0 .419.35.76.779.76h1.917c.15.179.384.499.593.878h-2.51a.771.771 0 0 0-.779.76c0 .418.35.76.779.76h2.947c-.01.116-.035.228-.078.332-.27.653-1.339 1.101-3.008 1.263a.866.866 0 0 0-.748.602.84.84 0 0 0 .286.906l4.792 3.79a.884.884 0 0 0 1.225-.127.836.836 0 0 0-.129-1.196l-3.335-2.637c1.307-.393 2.157-1.05 2.535-1.968.125-.3.19-.624.203-.965h1.607a.772.772 0 0 0 .779-.76c0-.418-.35-.76-.779-.76h-1.877a5.774 5.774 0 0 0-.275-.619 6.889 6.889 0 0 0-.139-.258h2.291a.772.772 0 0 0 .779-.76"/>
        </g>
        <path fill="#FFD550" d="M143.349 139.14c2.783 0 4.585-1.419 4.585-4.585v-5.526h-2.661v5.622c0 1.42-.737 2.101-1.897 2.101-1.16 0-1.897-.71-1.897-2.183v-5.54h-2.66v5.595c0 3.07 1.746 4.516 4.53 4.516zm6.454-.177h2.606v-5.622l4.367 5.622h2.292v-9.934h-2.606v5.417l-4.203-5.417h-2.456v9.934zm11.258 0h7.477v-2.333h-4.844v-7.601h-2.633v9.934zm8.937 0h2.648v-9.934h-2.648v9.934zm4.708 0h2.593v-5.84l2.565 3.943h.055l2.592-3.97v5.867h2.634v-9.934h-2.797l-2.43 3.916-2.415-3.916h-2.797v9.934zm12.5 0h2.647v-9.934h-2.648v9.934zm7.109 0h2.647v-7.6h2.975v-2.334h-8.597v2.333h2.975v7.601zm7.04 0h7.956v-2.252h-5.349v-1.692h4.749v-2.115h-4.749v-1.623h5.28v-2.252h-7.886v9.934zm9.594 0v-9.934h3.848c3.452 0 5.526 2.06 5.526 4.912v.028c0 2.852-2.088 4.994-5.567 4.994h-3.807zm3.875-7.587h-1.242v5.24h1.242c1.678 0 2.797-.969 2.797-2.593v-.027c0-1.637-1.119-2.62-2.797-2.62zm12.677 7.587h2.592v-10.002h-1.896l-2.893.832.505 2.06 1.692-.409v7.519zm4.68 0h2.92l4.408-7.942v-1.992h-7.56v2.224h4.612l-4.38 7.71zm12.376-5.294c.915 0 1.46-.574 1.46-1.338v-.027c0-.791-.573-1.378-1.487-1.378-.914 0-1.446.573-1.446 1.364v.028c0 .791.573 1.35 1.474 1.35zm-.49 3.26c1.46 0 1.828-1.296 1.91-2.1h-.014c-.573.532-1.296.777-2.074.777-1.965 0-3.384-1.2-3.384-3.152v-.027c0-2.156 1.665-3.589 3.93-3.589 1.419 0 2.265.382 3.015 1.133.71.723 1.188 1.842 1.188 3.698v.027c0 3.247-1.597 5.458-4.544 5.458-1.474 0-2.525-.464-3.425-1.174l1.269-1.855c.695.546 1.337.805 2.128.805z"/>
    </g>
</svg>
