<svg xmlns="http://www.w3.org/2000/svg" xmlns:xlink="http://www.w3.org/1999/xlink" width="320" height="142" viewBox="0 0 320 142">
    <defs>
        <path id="a" d="M37.864 15.055c0 5.67-7.546 10.266-16.854 10.266-9.309 0-16.855-4.596-16.855-10.266S11.7 4.789 21.01 4.789c9.308 0 16.854 4.597 16.854 10.266"/>
        <filter id="b" width="103%" height="104.9%" x="-1.5%" y="-2.4%" filterUnits="objectBoundingBox">
            <feOffset dx="1" dy="1" in="SourceAlpha" result="shadowOffsetInner1"/>
            <feComposite in="shadowOffsetInner1" in2="SourceAlpha" k2="-1" k3="1" operator="arithmetic" result="shadowInnerInner1"/>
            <feColorMatrix in="shadowInnerInner1" values="0 0 0 0 1 0 0 0 0 0.713592233 0 0 0 0 0 0 0 0 1 0"/>
        </filter>
        <path id="c" d="M42.019 14.808c0 2.365-.89 4.591-2.461 6.541-3.534 4.39-10.516 7.377-18.548 7.377C9.406 28.726 0 22.495 0 14.808 0 7.12 9.406.889 21.01.889c11.602 0 21.009 6.232 21.009 13.919"/>
        <path id="e" d="M37.864 14.716c0 5.67-7.546 10.266-16.854 10.266-9.309 0-16.855-4.596-16.855-10.266S11.7 4.451 21.01 4.451c9.308 0 16.854 4.595 16.854 10.265"/>
        <filter id="f" width="103%" height="104.9%" x="-1.5%" y="-2.4%" filterUnits="objectBoundingBox">
            <feOffset dx="1" dy="1" in="SourceAlpha" result="shadowOffsetInner1"/>
            <feComposite in="shadowOffsetInner1" in2="SourceAlpha" k2="-1" k3="1" operator="arithmetic" result="shadowInnerInner1"/>
            <feColorMatrix in="shadowInnerInner1" values="0 0 0 0 1 0 0 0 0 0.713592233 0 0 0 0 0 0 0 0 1 0"/>
        </filter>
        <path id="g" d="M42.019 14.808c0 2.365-.89 4.591-2.461 6.541-3.534 4.39-10.516 7.377-18.548 7.377C9.406 28.726 0 22.495 0 14.808 0 7.12 9.406.889 21.01.889c11.602 0 21.009 6.232 21.009 13.919"/>
        <path id="j" d="M25.823 9.503c0-.495-.439-.899-.973-.899h-7.872c-.536 0-.974.404-.974.899 0 .494.438.898.974.898h2.396c.188.21.48.589.741 1.037h-3.137c-.536 0-.974.404-.974.898s.438.899.974.899h3.683c-.013.136-.042.27-.097.392-.337.771-1.673 1.301-3.76 1.492-.44.04-.81.322-.935.712a.96.96 0 0 0 .357 1.07l5.99 4.479c.203.15.445.224.686.224.317 0 .632-.128.846-.373.379-.431.307-1.065-.16-1.413l-4.17-3.118c1.634-.464 2.696-1.24 3.168-2.325.157-.355.239-.738.255-1.14h2.009c.534 0 .973-.405.973-.899s-.439-.898-.973-.898h-2.348a6.642 6.642 0 0 0-.343-.732 8.006 8.006 0 0 0-.173-.305h2.864c.534 0 .973-.404.973-.898"/>
        <filter id="i" width="110%" height="110.8%" x="-3.5%" y="-2.7%" filterUnits="objectBoundingBox">
            <feOffset dx=".3" dy=".7" in="SourceAlpha" result="shadowOffsetOuter1"/>
            <feColorMatrix in="shadowOffsetOuter1" values="0 0 0 0 1 0 0 0 0 0.71372549 0 0 0 0 0 0 0 0 1 0"/>
        </filter>
    </defs>
    <g fill="none" fill-rule="evenodd">
        <path fill="#D14D2B" d="M66.755 122.747l-.055.023-46.603-40.837.028-.015a8.382 8.382 0 0 1-.123-.112c-2.914-2.695-3.774-4.694-3.538-7.478C17.52 68.38 25.745 62.5 36.616 62.5c6.157 0 10.487 1.102 13.085 3.162l.209-.115 41.317 34.722c8.285 2.025 14.193 7.304 14.193 13.497 0 2.442-.919 4.744-2.542 6.758-3.652 4.537-10.866 7.624-19.166 7.624-6.862 0-12.98-2.109-16.957-5.401z" opacity=".417"/>
        <path stroke="#FFF" stroke-dasharray="0.9448604025669044,2.834581101700209" stroke-linecap="round" stroke-linejoin="round" stroke-width=".978" d="M81.241 125.49h187.331M81.241 88.156h187.331M81 50.822h187.331"/>
        <path fill="#FB9075" d="M116.998 20.555h33.807a2.934 2.934 0 0 1 2.934 2.934v16.808a2.934 2.934 0 0 1-2.934 2.934h-33.807a2.934 2.934 0 0 1-2.935-2.934V23.489a2.934 2.934 0 0 1 2.935-2.934z"/>
        <path fill="#FFF" d="M116.998 58.555h33.807a2.934 2.934 0 0 1 2.934 2.934v16.808a2.934 2.934 0 0 1-2.934 2.934h-33.807a2.934 2.934 0 0 1-2.935-2.934V61.489a2.934 2.934 0 0 1 2.935-2.934zM117.087 95.484h33.807a2.934 2.934 0 0 1 2.934 2.935v16.807a2.934 2.934 0 0 1-2.934 2.934h-33.807a2.934 2.934 0 0 1-2.935-2.934V98.419a2.934 2.934 0 0 1 2.935-2.935z"/>
        <path fill="#FB9075" d="M169.323 37V26.643h4.197c2.461 0 3.955 1.45 3.955 3.556v.029c0 2.39-1.863 3.614-4.168 3.614H171.5V37h-2.177zm2.177-5.108h1.878c1.18 0 1.892-.697 1.892-1.621v-.029c0-1.053-.754-1.622-1.935-1.622H171.5v3.272zm10.343 3.756c1.081 0 1.821-.597 1.821-1.45v-.428a3.891 3.891 0 0 0-1.508-.298c-.996 0-1.608.412-1.608 1.138v.028c0 .64.541 1.01 1.295 1.01zm-.64 1.508c-1.494 0-2.746-.867-2.746-2.432v-.029c0-1.721 1.323-2.518 3.201-2.518a6 6 0 0 1 1.978.313v-.142c0-.968-.598-1.494-1.75-1.494-.854 0-1.48.17-2.206.44l-.54-1.65c.868-.384 1.736-.64 3.059-.64 1.209 0 2.091.328 2.66.882.583.584.854 1.452.854 2.504V37h-2.092v-.882c-.54.612-1.308 1.038-2.418 1.038zm6.644-9.005h2.276v-1.935h-2.276v1.935zm.071 8.849h2.148v-7.91h-2.148V37zm8.223-1.693c1.082 0 1.992-.896 1.992-2.248v-.028c0-1.352-.91-2.248-1.992-2.248-1.081 0-1.992.868-1.992 2.248v.028c0 1.352.911 2.248 1.992 2.248zm-.54 1.85c-1.85 0-3.614-1.452-3.614-4.098v-.028c0-2.632 1.736-4.084 3.614-4.084 1.209 0 1.963.555 2.504 1.21v-3.955h2.162V37h-2.162v-1.167c-.555.754-1.323 1.323-2.504 1.323z"/>
        <path fill="#FFF" d="M170.563 74h2.06v-9.94H171.2l-2.807.842.434 1.708 1.736-.434V74zm8.597.163c-2.631 0-4.353-2.21-4.353-5.072v-.027c0-2.847 1.763-5.098 4.38-5.098 2.603 0 4.352 2.21 4.352 5.071v.027c0 2.848-1.749 5.099-4.38 5.099zm.027-1.872c1.356 0 2.21-1.383 2.21-3.2v-.027c0-1.817-.895-3.227-2.237-3.227-1.343 0-2.21 1.37-2.21 3.2v.027c0 1.83.88 3.227 2.237 3.227zm14.17.095c1.03 0 1.898-.854 1.898-2.142v-.027c0-1.288-.868-2.143-1.899-2.143-1.03 0-1.898.828-1.898 2.143v.027c0 1.288.868 2.142 1.898 2.142zm-.516 1.763c-1.763 0-3.444-1.383-3.444-3.905v-.027c0-2.509 1.654-3.892 3.444-3.892 1.153 0 1.871.53 2.387 1.153v-3.77h2.06V74h-2.06v-1.112c-.53.719-1.261 1.261-2.387 1.261zm9.275-1.437c1.03 0 1.735-.57 1.735-1.383v-.407a3.709 3.709 0 0 0-1.437-.285c-.949 0-1.532.393-1.532 1.085v.027c0 .61.515.963 1.234.963zm-.61 1.437c-1.424 0-2.617-.827-2.617-2.319v-.027c0-1.64 1.26-2.4 3.05-2.4.787 0 1.343.122 1.885.299v-.136c0-.922-.57-1.424-1.667-1.424-.814 0-1.41.163-2.102.42l-.515-1.572c.827-.366 1.654-.61 2.915-.61 1.152 0 1.993.311 2.535.84.556.556.814 1.383.814 2.387V74h-1.993v-.84c-.515.582-1.248.99-2.305.99zm9.302-2.468l-1.79-5.22h-2.183l2.996 7.566c-.217.434-.42.556-.813.556-.299 0-.651-.122-.936-.285l-.691 1.492c.542.312 1.111.515 1.87.515 1.275 0 1.9-.583 2.482-2.115l2.915-7.73h-2.142l-1.708 5.221zm7.606 2.455c1.628 0 2.875-.76 2.875-2.414v-.027c0-1.383-1.234-1.885-2.292-2.224-.827-.285-1.572-.488-1.572-.936v-.027c0-.325.298-.57.84-.57.57 0 1.316.272 2.061.706l.787-1.424c-.814-.542-1.844-.868-2.793-.868-1.52 0-2.753.855-2.753 2.373v.027c0 1.451 1.207 1.94 2.278 2.251.84.258 1.586.42 1.586.909v.027c0 .366-.311.61-.962.61-.705 0-1.573-.312-2.387-.908l-.895 1.37a5.31 5.31 0 0 0 3.227 1.125zm9.004-.136h2.047V63.708h-2.047V74zm6.983-1.288c1.03 0 1.736-.57 1.736-1.383v-.407a3.709 3.709 0 0 0-1.438-.285c-.949 0-1.532.393-1.532 1.085v.027c0 .61.515.963 1.234.963zm-.61 1.437c-1.424 0-2.617-.827-2.617-2.319v-.027c0-1.64 1.261-2.4 3.05-2.4.787 0 1.343.122 1.886.299v-.136c0-.922-.57-1.424-1.668-1.424-.814 0-1.41.163-2.102.42l-.515-1.572c.827-.366 1.654-.61 2.915-.61 1.153 0 1.993.311 2.536.84.556.556.813 1.383.813 2.387V74h-1.993v-.84c-.515.582-1.247.99-2.305.99zm8.773-.027c.705 0 1.207-.163 1.654-.42v-1.655a2.259 2.259 0 0 1-1.057.258c-.502 0-.733-.244-.733-.773v-3.308h1.817V66.46h-1.817v-1.953h-2.06v1.953h-.91v1.763h.91v3.647c0 1.736.894 2.251 2.196 2.251zm6.74.04c-2.252 0-3.92-1.586-3.92-3.89v-.028c0-2.156 1.533-3.919 3.716-3.919 2.495 0 3.66 1.94 3.66 4.082 0 .162-.013.352-.026.542h-5.302c.203 1.03.908 1.56 1.898 1.56.746 0 1.275-.231 1.871-.787l1.18 1.044c-.705.868-1.708 1.397-3.078 1.397zm-1.9-4.501h3.35c-.136-.99-.705-1.681-1.654-1.681-.922 0-1.533.664-1.695 1.68zM254.484 74h2.06v-2.807c0-1.83.91-2.712 2.347-2.712h.108v-2.156c-1.274-.054-2.007.638-2.454 1.695v-1.56h-2.061V74z"/>
        <path fill="#ED6745" d="M126.661 67.884h-1.219c.19.28.313.607.37.984h1.129l-.28 1.017h-.844c-.082.615-.328 1.085-.738 1.411-.41.327-.99.521-1.739.585l2.606 3.046V75h-1.605l-2.845-3.315-.006-.855h1.414c.418 0 .749-.087.993-.26.244-.174.407-.402.489-.685h-3.008l.285-1.017h2.7c-.182-.578-.676-.867-1.48-.867h-1.505l.302-1.14h5.266l-.285 1.023zm5.323 7.304c-1.358 0-2.259-.403-2.958-1.103-.727-.726-1.197-1.815-1.197-3.671v-.027c0-3.04 1.466-5.366 4.505-5.366 1.345 0 2.286.377 3.214 1.076l-1.25 1.856c-.606-.457-1.157-.74-1.95-.74-1.426 0-1.816 1.332-1.883 2.139h.013c.592-.485 1.25-.74 2.098-.74 1.762 0 3.268 1.076 3.268 3.053v.04c0 2.138-1.721 3.483-3.86 3.483zm-.107-2.057c.9 0 1.425-.552 1.425-1.291v-.027c0-.74-.551-1.291-1.452-1.291-.888 0-1.426.538-1.426 1.277v.027c0 .726.565 1.305 1.453 1.305zm9.804 2.057c-2.757 0-4.492-2.273-4.492-5.056v-.027c0-2.784 1.762-5.084 4.519-5.084 2.73 0 4.478 2.273 4.478 5.057v.027c0 2.784-1.761 5.083-4.505 5.083zm.027-2.3c1.13 0 1.856-1.156 1.856-2.756v-.027c0-1.6-.767-2.784-1.883-2.784-1.13 0-1.87 1.143-1.87 2.757v.027c0 1.614.754 2.784 1.897 2.784zM126.894 104.884h-1.219c.19.28.313.607.37.984h1.129l-.28 1.017h-.844c-.082.615-.328 1.085-.738 1.411-.41.327-.99.521-1.739.585l2.605 3.046V112h-1.604l-2.845-3.315-.006-.855h1.414c.418 0 .749-.087.993-.26.244-.174.407-.402.489-.685h-3.008l.285-1.017h2.7c-.182-.578-.676-.867-1.481-.867h-1.504l.302-1.14h5.266l-.285 1.023zm4.812 7.304c2.34 0 3.968-1.304 3.968-3.456v-.027c0-2.152-1.574-3.12-3.362-3.12a3.58 3.58 0 0 0-1.52.323l.094-1.533h4.357v-2.166h-6.442l-.282 4.936 1.547.888c.457-.27.968-.471 1.573-.471.888 0 1.506.444 1.506 1.17v.027c0 .74-.565 1.197-1.479 1.197-.834 0-1.587-.39-2.367-1.063l-1.506 1.762c1.008.942 2.205 1.533 3.913 1.533zm9.226-5.406c.901 0 1.44-.565 1.44-1.318v-.027c0-.78-.566-1.358-1.467-1.358-.9 0-1.425.565-1.425 1.345v.026c0 .78.565 1.332 1.452 1.332zm-.484 3.214c1.439 0 1.802-1.277 1.883-2.071h-.014c-.564.525-1.277.767-2.044.767-1.936 0-3.335-1.184-3.335-3.107v-.027c0-2.125 1.64-3.537 3.873-3.537 1.399 0 2.233.377 2.972 1.116.7.713 1.17 1.816 1.17 3.645v.027c0 3.2-1.573 5.38-4.478 5.38-1.453 0-2.488-.458-3.376-1.157l1.251-1.83c.686.539 1.318.794 2.098.794zM127.104 29.815h-1.23c.192.282.316.613.372.993h1.14l-.282 1.027h-.852c-.083.621-.331 1.096-.745 1.426-.414.329-1 .526-1.756.59l2.63 3.076V37h-1.62l-2.872-3.347-.006-.864h1.428c.422 0 .756-.087 1.002-.262.247-.175.411-.406.494-.692h-3.037l.288-1.027h2.726c-.184-.583-.683-.875-1.495-.875h-1.519l.305-1.151h5.317l-.288 1.033zm5.368 7.375c-1.37 0-2.278-.407-2.983-1.112-.732-.732-1.207-1.83-1.207-3.702v-.027c0-3.064 1.478-5.41 4.543-5.41 1.356 0 2.305.38 3.24 1.085l-1.26 1.87c-.61-.46-1.167-.745-1.967-.745-1.437 0-1.83 1.342-1.898 2.156h.013c.597-.488 1.262-.746 2.116-.746 1.776 0 3.295 1.085 3.295 3.078v.04c0 2.157-1.736 3.513-3.892 3.513zm-.108-2.075c.908 0 1.437-.556 1.437-1.301v-.028c0-.745-.556-1.301-1.464-1.301-.895 0-1.438.542-1.438 1.288v.027c0 .732.57 1.315 1.465 1.315zm9.885 2.075c-2.78 0-4.53-2.292-4.53-5.099v-.027c0-2.807 1.777-5.125 4.557-5.125 2.752 0 4.515 2.291 4.515 5.098v.027c0 2.807-1.776 5.126-4.542 5.126zm.027-2.319c1.139 0 1.87-1.166 1.87-2.78v-.027c0-1.613-.772-2.807-1.897-2.807-1.14 0-1.885 1.153-1.885 2.78v.027c0 1.627.76 2.807 1.912 2.807z"/>
        <path fill="#FFF" d="M168.746 112h7.268v-1.803h-4.38l1.695-1.33c1.75-1.369 2.59-2.196 2.59-3.823v-.027c0-1.83-1.356-3.024-3.377-3.024-1.762 0-2.698.719-3.66 2.048l1.464 1.166c.732-.909 1.274-1.356 2.06-1.356.8 0 1.384.474 1.384 1.342 0 .827-.488 1.383-1.736 2.427l-3.308 2.726V112zm13.302.163c-2.63 0-4.353-2.21-4.353-5.072v-.027c0-2.847 1.763-5.098 4.38-5.098 2.603 0 4.352 2.21 4.352 5.071v.027c0 2.848-1.749 5.099-4.38 5.099zm.027-1.872c1.356 0 2.21-1.383 2.21-3.2v-.027c0-1.817-.895-3.227-2.237-3.227-1.343 0-2.21 1.37-2.21 3.2v.027c0 1.83.88 3.227 2.237 3.227zm14.17.095c1.03 0 1.898-.854 1.898-2.142v-.027c0-1.288-.868-2.143-1.898-2.143-1.031 0-1.899.828-1.899 2.143v.027c0 1.288.868 2.142 1.899 2.142zm-.516 1.763c-1.762 0-3.444-1.383-3.444-3.905v-.027c0-2.509 1.654-3.892 3.444-3.892 1.153 0 1.872.53 2.387 1.153v-3.77h2.06V112h-2.06v-1.112c-.529.719-1.261 1.261-2.387 1.261zm9.275-1.437c1.03 0 1.736-.57 1.736-1.383v-.407a3.709 3.709 0 0 0-1.438-.285c-.949 0-1.532.393-1.532 1.085v.027c0 .61.515.963 1.234.963zm-.61 1.437c-1.424 0-2.617-.827-2.617-2.319v-.027c0-1.64 1.26-2.4 3.05-2.4.787 0 1.343.122 1.886.299v-.136c0-.922-.57-1.424-1.668-1.424-.814 0-1.41.163-2.102.42l-.515-1.572c.827-.366 1.654-.61 2.915-.61 1.153 0 1.993.311 2.536.84.556.556.813 1.383.813 2.387V112H206.7v-.84c-.515.582-1.248.99-2.305.99zm9.302-2.468l-1.79-5.22h-2.183l2.996 7.566c-.217.434-.42.556-.813.556-.298 0-.651-.122-.936-.285l-.691 1.492c.542.312 1.112.515 1.87.515 1.276 0 1.9-.583 2.482-2.115l2.916-7.73h-2.143l-1.708 5.221zm7.607 2.455c1.627 0 2.874-.76 2.874-2.414v-.027c0-1.383-1.234-1.885-2.291-2.224-.827-.285-1.573-.488-1.573-.936v-.027c0-.325.298-.57.84-.57.57 0 1.316.272 2.062.706l.786-1.424c-.814-.542-1.844-.868-2.793-.868-1.519 0-2.753.855-2.753 2.373v.027c0 1.451 1.207 1.94 2.278 2.251.84.258 1.587.42 1.587.909v.027c0 .366-.312.61-.963.61-.705 0-1.573-.312-2.387-.908l-.895 1.37a5.31 5.31 0 0 0 3.228 1.125zm9.003-.136h2.048v-10.292h-2.048V112zm6.983-1.288c1.03 0 1.736-.57 1.736-1.383v-.407a3.709 3.709 0 0 0-1.437-.285c-.95 0-1.533.393-1.533 1.085v.027c0 .61.516.963 1.234.963zm-.61 1.437c-1.424 0-2.617-.827-2.617-2.319v-.027c0-1.64 1.261-2.4 3.051-2.4.787 0 1.342.122 1.885.299v-.136c0-.922-.57-1.424-1.668-1.424-.814 0-1.41.163-2.102.42l-.515-1.572c.827-.366 1.654-.61 2.915-.61 1.153 0 1.994.311 2.536.84.556.556.814 1.383.814 2.387V112h-1.994v-.84c-.515.582-1.247.99-2.305.99zm8.773-.027c.705 0 1.207-.163 1.654-.42v-1.655a2.259 2.259 0 0 1-1.057.258c-.502 0-.732-.244-.732-.773v-3.308h1.817v-1.763h-1.817v-1.953h-2.061v1.953h-.909v1.763h.909v3.647c0 1.736.894 2.251 2.196 2.251zm6.74.04c-2.252 0-3.92-1.586-3.92-3.89v-.028c0-2.156 1.533-3.919 3.716-3.919 2.495 0 3.661 1.94 3.661 4.082 0 .162-.014.352-.027.542h-5.302c.203 1.03.909 1.56 1.898 1.56.746 0 1.275-.231 1.872-.787l1.18 1.044c-.706.868-1.71 1.397-3.079 1.397zm-1.9-4.501h3.35c-.135-.99-.705-1.681-1.654-1.681-.922 0-1.532.664-1.695 1.68zm7.079 4.339h2.061v-2.807c0-1.83.909-2.712 2.346-2.712h.108v-2.156c-1.274-.054-2.006.638-2.454 1.695v-1.56h-2.061V112z"/>
        <path fill="#FCC41A" d="M103.996 102.38v9.881c0 2.364-.89 4.591-2.46 6.54-3.535 4.39-10.516 7.379-18.55 7.379-11.603 0-21.008-6.232-21.008-13.919v-9.88"/>
        <path fill="#FCDD7C" d="M103.996 105.79c0 2.363-.89 4.59-2.46 6.54-3.535 4.39-10.516 7.378-18.55 7.378-11.603 0-21.008-6.232-21.008-13.919s9.405-13.918 21.009-13.918c11.603 0 21.009 6.231 21.009 13.918"/>
        <path fill="#FCC41A" d="M103.997 97.49v6.47c0 2.365-.89 4.592-2.461 6.542-3.534 4.39-10.516 7.377-18.548 7.377-11.605 0-21.01-6.231-21.01-13.918V97.49"/>
        <path fill="#FFF" d="M67.955 103.46v18.544c1.575 1.07 3.411 1.968 5.438 2.659v-21.204h-5.438zM64.164 103.46v14.985a14.241 14.241 0 0 0 1.708 1.9v-16.886h-1.708z" opacity=".3"/>
        <path fill="#FCDD7C" d="M103.997 97.49c0 2.364-.89 4.59-2.461 6.54-3.534 4.39-10.516 7.377-18.548 7.377-11.605 0-21.01-6.231-21.01-13.917 0-7.688 9.405-13.92 21.01-13.92 11.602 0 21.009 6.232 21.009 13.92"/>
        <path fill="#FFF7D5" d="M102.409 92.15c1.035 1.647 1.607 3.453 1.607 5.348 0 7.687-9.407 13.919-21.01 13.919-8.002 0-14.958-2.963-18.506-7.324l37.909-11.943z"/>
        <g transform="translate(61.977 82.4)">
            <use fill="#FCC41A" xlink:href="#a"/>
            <use fill="#000" filter="url(#b)" xlink:href="#a"/>
        </g>
        <g transform="translate(61.977 82.4)">
            <mask id="d" fill="#fff">
                <use xlink:href="#c"/>
            </mask>
            <path fill="#E19F29" d="M35.342 8.178c-3.111 3.269-9.258 5.492-16.332 5.492C8.79 13.67.51 9.03.51 3.307c0-5.722 8.281-10.363 18.5-10.363 10.216 0 18.5 4.64 18.5 10.363 0 1.761-.784 3.419-2.168 4.87z" mask="url(#d)" opacity=".628"/>
        </g>
        <g>
            <path fill="#FCC41A" d="M103.996 67.572v9.88c0 2.365-.89 4.592-2.46 6.542C98 88.384 91.02 91.37 82.986 91.37c-11.603 0-21.008-6.232-21.008-13.918v-9.881"/>
            <path fill="#FCDD7C" d="M103.996 70.981c0 2.364-.89 4.59-2.46 6.54C98 81.913 91.02 84.9 82.986 84.9c-11.603 0-21.008-6.232-21.008-13.918 0-7.687 9.405-13.919 21.009-13.919 11.603 0 21.009 6.232 21.009 13.919"/>
            <path fill="#FCC41A" d="M103.997 62.68v6.472c0 2.365-.89 4.592-2.461 6.542-3.534 4.389-10.516 7.377-18.548 7.377-11.605 0-21.01-6.231-21.01-13.92v-6.47"/>
            <path fill="#FFF" d="M67.955 68.651v18.544c1.575 1.071 3.411 1.97 5.438 2.66V68.65h-5.438zM64.164 68.651v14.985c.496.665 1.065 1.3 1.708 1.9V68.652h-1.708z" opacity=".3"/>
            <path fill="#FCDD7C" d="M103.996 62.738c0 2.365-.89 4.591-2.461 6.541-3.534 4.39-10.516 7.377-18.548 7.377-11.604 0-21.01-6.231-21.01-13.918 0-7.687 9.406-13.919 21.01-13.919 11.602 0 21.009 6.232 21.009 13.919"/>
            <path fill="#FFF7D5" d="M102.409 57.4c1.035 1.647 1.607 3.453 1.607 5.348 0 7.687-9.407 13.919-21.01 13.919-8.002 0-14.958-2.963-18.506-7.324L102.409 57.4z"/>
            <g transform="translate(61.977 47.93)">
                <use fill="#FCC41A" xlink:href="#e"/>
                <use fill="#000" filter="url(#f)" xlink:href="#e"/>
            </g>
            <g transform="translate(61.977 47.93)">
                <mask id="h" fill="#fff">
                    <use xlink:href="#g"/>
                </mask>
                <path fill="#E19F29" d="M35.342 6.178c-3.111 3.269-9.258 5.492-16.332 5.492C8.79 11.67.51 7.03.51 1.307c0-5.722 8.281-10.363 18.5-10.363 10.216 0 18.5 4.64 18.5 10.363 0 1.761-.784 3.419-2.168 4.87z" mask="url(#h)" opacity=".628"/>
            </g>
        </g>
        <g>
            <path fill="#8C5E0C" d="M103.996 37.106c0 2.365-.89 4.592-2.461 6.542-3.534 4.39-10.515 7.377-18.548 7.377-11.605 0-21.01-6.232-21.01-13.919 0-7.686 9.405-13.918 21.01-13.918 11.602 0 21.009 6.232 21.009 13.918"/>
            <path fill="#8C5E0C" d="M103.996 28.807v6.47c0 2.366-.89 4.593-2.461 6.543C98 46.21 91.02 49.197 82.987 49.197c-11.604 0-21.01-6.231-21.01-13.92v-6.47"/>
            <path fill="#8C5E0C" d="M103.996 28.807c0 2.365-.89 4.59-2.461 6.541-3.534 4.39-10.515 7.377-18.548 7.377-11.604 0-21.01-6.231-21.01-13.918 0-7.687 9.406-13.919 21.01-13.919 11.603 0 21.009 6.232 21.009 13.919"/>
            <path fill="#8C5E0C" d="M99.84 28.772c0 5.67-7.545 10.266-16.854 10.266S66.13 34.442 66.13 28.772s7.546-10.266 16.855-10.266c9.309 0 16.855 4.596 16.855 10.266"/>
            <path fill="#8C5E0C" d="M98.02 24.146c-2.78-3.343-8.46-5.64-15.032-5.64-6.574 0-12.254 2.298-15.033 5.642 3.391-2.82 8.852-4.66 15.033-4.66 6.178 0 11.64 1.838 15.031 4.658"/>
            <path fill="#FCC41A" d="M103.996 30.764v9.88c0 2.365-.89 4.591-2.461 6.541-3.534 4.39-10.515 7.377-18.548 7.377-11.605 0-21.01-6.231-21.01-13.918v-9.88"/>
            <path fill="#FCDD7C" d="M103.996 34.172c0 2.365-.89 4.591-2.461 6.542C98 45.104 91.02 48.09 82.987 48.09c-11.605 0-21.01-6.231-21.01-13.918 0-7.686 9.405-13.919 21.01-13.919 11.602 0 21.009 6.233 21.009 13.919"/>
            <path fill="#FCC41A" d="M103.996 25.872v6.471c0 2.366-.89 4.593-2.461 6.543C98 43.275 91.02 46.263 82.987 46.263c-11.604 0-21.01-6.232-21.01-13.92v-6.47"/>
            <path fill="#FFF" d="M67.954 31.843v18.544c1.576 1.071 3.411 1.968 5.438 2.66V31.843h-5.438zM64.163 31.843v14.985c.497.665 1.065 1.3 1.71 1.9V31.843h-1.71z" opacity=".3"/>
            <path fill="#FFC150" d="M103.996 25.615c0 2.365-.89 4.59-2.461 6.541-3.534 4.39-10.515 7.377-18.548 7.377-11.603 0-21.01-6.231-21.01-13.918 0-7.687 9.407-13.92 21.01-13.92 11.603 0 21.009 6.233 21.009 13.92" style="mix-blend-mode:lighten"/>
            <path fill="#FFF7D5" d="M102.689 20.696c1.035 1.647 1.607 3.453 1.607 5.348 0 7.687-9.407 13.919-21.01 13.919-8.002 0-14.958-2.964-18.506-7.324l37.909-11.943z"/>
            <path fill="#FFD13D" d="M99.84 25.838c0 5.67-7.545 10.265-16.854 10.265S66.13 31.508 66.13 25.838c0-5.67 7.546-10.266 16.855-10.266 9.309 0 16.855 4.596 16.855 10.266"/>
            <path fill="#FFB600" d="M69.104 31.662C67.229 30.007 66.13 28 66.13 25.838c0-5.67 7.546-10.266 16.855-10.266 6.446 0 12.046 2.203 14.882 5.441-3.041-2.683-8.124-4.441-13.882-4.441-9.309 0-16.855 4.596-16.855 10.266 0 1.744.714 3.386 1.973 4.824z"/>
            <g transform="translate(61.977 11.696)">
                <use fill="#000" filter="url(#i)" xlink:href="#j"/>
                <use fill="#D14D2B" xlink:href="#j"/>
            </g>
        </g>
    </g>
</svg>
